<?xml version="1.0" standalone="no"?><!DOCTYPE svg PUBLIC "-//W3C//DTD SVG 1.1//EN" "http://www.w3.org/Graphics/SVG/1.1/DTD/svg11.dtd"><svg height="1024" node-id="1" sillyvg="true" template-height="1024" template-width="1024" version="1.1" viewBox="0 0 1024 1024" width="1024" xmlns="http://www.w3.org/2000/svg" xmlns:xlink="http://www.w3.org/1999/xlink"><defs node-id="77"></defs><path d="M 215.30 291.80 C 217.10 292.20 218.90 292.70 220.70 292.90 C 229.00 294.00 230.80 306.80 230.50 313.20 C 230.30 319.70 224.70 322.80 220.00 325.90 C 218.70 327.00 217.80 328.60 217.80 330.40 C 218.00 336.20 218.90 343.80 216.00 348.70 C 212.60 354.30 207.10 356.30 199.50 354.50 C 190.80 352.50 191.00 341.30 189.70 334.40 C 189.50 333.70 189.30 333.10 188.60 332.80 C 185.70 331.70 183.00 330.10 180.30 328.60 C 175.40 324.80 172.30 319.40 171.60 313.20 C 170.50 304.50 173.80 301.80 178.30 296.40 C 182.50 291.70 182.10 288.10 182.10 282.30 C 182.10 275.40 190.60 272.20 196.20 271.40 C 210.90 268.90 211.20 279.70 214.10 289.90 C 213.90 291.10 214.60 291.60 215.30 291.80 Z M 202.10 329.10 L 209.90 319.30 C 211.20 317.50 211.00 314.80 209.20 313.50 L 204.50 309.70 C 200.50 306.60 195.30 306.60 193.10 309.70 L 188.90 315.10 C 186.40 318.20 187.80 323.10 191.60 326.30 L 196.30 330.10 C 198.10 331.40 200.70 330.90 202.10 329.10 Z" fill="#ffb15c" fill-rule="nonzero" node-id="81" stroke="none" target-height="87.399994" target-width="60.300003" target-x="170.5" target-y="268.9"></path><path d="M 202.10 329.10 C 200.80 330.90 198.10 331.10 196.30 329.80 L 191.60 326.00 C 187.60 322.90 186.50 318.00 188.90 314.80 L 193.10 309.40 C 195.60 306.30 200.70 306.30 204.50 309.40 L 209.20 313.20 C 211.00 314.50 211.20 317.20 209.90 319.00 L 202.10 329.10 Z" fill="#ffd9bf" fill-rule="nonzero" node-id="83" stroke="none" target-height="24.800018" target-width="24.699997" target-x="186.5" target-y="306.3"></path><path d="M 382.20 313.00 C 381.30 313.20 381.10 314.30 381.30 315.00 C 381.50 315.70 382.00 316.10 382.40 316.60 C 394.70 327.30 405.20 340.10 412.80 354.60 C 413.90 356.60 413.70 357.70 412.10 358.00 L 403.20 356.70 C 399.20 355.80 395.40 354.00 392.50 351.10 C 386.20 344.40 379.10 338.60 371.50 333.50 C 370.40 332.60 368.80 332.40 367.50 332.80 C 364.40 333.70 361.50 335.30 359.00 337.70 C 354.10 342.60 348.90 347.10 343.40 351.10 C 340.30 353.60 337.40 356.50 334.70 359.60 C 332.20 363.00 329.30 365.90 326.40 368.50 C 322.20 371.90 318.40 375.60 314.80 379.90 C 313.90 380.80 313.20 381.90 312.60 383.30 C 312.20 387.80 313.30 388.20 315.70 384.40 C 319.10 379.30 323.10 374.60 327.50 370.30 C 328.20 369.60 329.10 369.40 329.70 369.60 C 330.40 369.60 330.80 370.30 330.80 370.70 L 330.80 370.90 C 329.90 378.50 341.50 393.00 346.40 398.20 C 347.70 399.50 348.20 399.30 348.20 397.50 C 347.80 389.50 344.00 384.30 341.30 376.90 C 340.00 373.30 340.00 369.50 341.10 366.00 C 345.30 352.80 353.20 345.70 364.10 338.70 C 365.90 337.40 368.30 337.10 370.40 338.00 C 378.70 342.20 385.40 349.20 389.40 357.40 C 390.50 359.90 390.50 362.50 389.40 365.00 C 386.50 374.60 383.40 384.00 379.80 393.80 C 379.60 394.20 379.80 394.70 380.20 394.90 C 380.20 394.90 380.40 394.90 380.60 394.90 C 381.50 394.90 382.40 394.20 382.80 393.60 C 388.60 384.90 393.30 375.70 397.10 365.90 C 397.50 364.10 397.80 362.30 397.80 360.50 C 397.80 359.80 398.20 359.20 398.70 358.50 C 399.80 357.40 401.60 356.90 403.20 357.40 C 412.40 362.30 420.80 368.10 428.70 375.00 C 430.00 376.10 430.90 375.90 431.60 374.30 C 431.60 373.40 431.40 372.30 430.90 371.60 C 432.00 369.80 434.00 368.70 436.00 368.50 C 437.60 368.30 439.10 368.30 440.70 368.70 C 456.80 372.50 471.80 379.90 484.50 390.40 C 485.80 391.30 487.60 391.10 488.50 390.00 C 489.20 389.60 489.60 389.10 490.30 388.70 L 491.00 390.00 C 491.40 390.90 491.90 391.10 492.60 390.40 C 507.10 376.80 523.70 365.60 542.00 357.30 C 543.60 356.90 545.40 356.90 546.70 357.50 C 547.40 357.70 548.00 357.50 548.50 356.80 C 549.20 355.50 549.40 354.10 549.40 352.80 C 549.60 354.80 550.70 356.60 552.50 357.30 C 557.20 360.00 562.30 362.00 567.50 363.60 C 571.30 364.70 575.80 363.60 581.10 360.50 C 584.00 362.70 586.00 365.90 587.10 369.20 C 588.90 385.10 590.00 400.90 590.50 416.60 C 590.70 419.50 589.80 422.40 588.30 424.90 C 582.90 432.00 577.60 439.20 572.20 446.30 L 563.90 456.60 C 562.80 457.90 562.80 459.70 564.10 461.10 C 569.70 467.10 574.40 473.80 578.40 481.00 C 578.80 481.70 579.10 482.60 578.80 483.50 C 578.60 489.10 577.50 494.70 575.70 500.00 C 571.50 510.30 566.50 520.10 560.70 529.50 C 559.40 531.70 560.00 532.40 562.50 531.70 C 564.30 531.00 565.90 529.70 566.70 527.90 C 570.70 520.80 575.00 512.90 579.40 504.40 C 579.60 503.70 580.50 503.30 581.20 503.30 C 586.10 503.70 593.00 504.90 594.60 510.20 C 594.80 510.90 595.30 511.30 595.90 511.80 C 597.50 512.20 598.40 513.80 598.40 515.40 C 594.60 518.30 591.70 522.30 589.90 526.80 L 577.20 528.60 C 576.10 528.80 575.00 529.70 575.20 531.10 L 575.20 531.10 C 575.60 537.80 577.00 544.30 579.20 550.80 C 579.40 551.50 579.90 552.10 580.50 552.40 C 582.70 554.00 585.40 555.30 587.90 556.40 C 592.60 557.50 597.50 555.50 600.20 551.50 C 604.70 543.90 598.60 536.80 593.10 532.10 C 592.40 531.40 592.20 530.50 592.70 529.60 C 592.90 529.20 593.40 528.90 593.80 528.70 C 600.90 533.60 611.70 536.50 609.20 548.10 C 605.80 564.90 596.90 580.00 584.20 591.20 C 583.80 591.60 583.30 592.10 583.30 592.80 C 583.50 593.20 583.70 593.50 584.20 593.00 C 587.10 589.60 589.80 587.90 592.00 587.60 C 601.20 586.90 605.40 582.70 612.10 578.20 C 614.10 576.90 615.70 575.10 616.60 572.80 C 617.00 572.10 617.00 571.50 616.60 570.80 C 615.30 567.90 612.80 565.90 609.70 565.20 C 608.80 565.00 608.10 563.90 608.40 563.00 L 608.40 562.80 L 612.60 552.50 C 619.10 551.40 627.60 552.30 627.80 542.90 C 628.50 529.00 627.80 515.00 626.00 501.10 C 624.40 491.70 618.40 483.90 607.50 477.60 C 607.90 475.10 607.10 472.70 605.00 471.10 C 594.10 463.70 581.80 458.40 569.00 455.00 C 570.10 452.10 571.90 449.60 574.10 447.60 C 574.50 446.50 575.20 445.80 576.10 445.10 C 576.50 444.90 577.20 444.90 577.70 445.10 C 587.50 448.50 596.70 453.10 605.20 458.70 C 616.40 466.50 628.20 471.40 640.70 476.10 C 641.60 476.50 642.70 476.10 642.90 475.00 C 643.10 474.60 643.10 474.10 642.90 473.90 C 642.50 472.60 642.00 471.40 641.10 470.30 C 642.40 468.70 642.20 466.70 640.70 464.30 C 638.00 460.10 638.90 458.70 643.60 460.70 C 645.20 461.40 646.30 462.50 647.00 463.80 C 647.40 464.50 647.70 465.40 647.40 466.00 C 647.20 469.10 648.10 471.40 650.30 472.30 C 654.10 482.40 659.50 491.50 666.60 499.30 C 673.50 507.10 684.90 514.30 692.50 521.20 C 701.00 529.00 711.70 539.30 724.70 552.50 C 739.90 568.10 756.60 577.70 778.80 576.40 C 786.20 576.00 792.00 572.40 797.60 568.10 C 798.90 567.00 799.20 565.20 798.00 563.90 C 797.80 563.70 797.60 563.50 797.30 563.20 L 785.00 555.40 C 792.10 547.10 798.60 538.00 804.00 528.40 C 805.30 526.60 807.10 525.30 809.10 524.40 C 809.80 524.00 810.70 524.20 811.10 524.60 L 813.80 527.30 C 812.00 526.90 811.10 527.10 811.10 527.70 C 811.80 536.20 810.90 544.70 808.40 552.90 C 807.30 555.80 805.50 558.30 803.00 559.80 C 802.60 560.20 802.10 560.90 801.90 561.60 C 800.10 570.80 802.60 580.10 808.80 587.10 C 809.50 588.00 809.90 588.90 809.70 590.00 C 808.80 596.90 806.10 601.80 801.70 604.50 C 801.00 604.90 800.40 605.60 800.10 606.50 C 798.80 609.60 797.20 613.00 795.60 616.30 C 794.30 618.80 792.70 620.80 790.50 622.60 C 785.60 626.80 782.50 630.90 776.20 634.20 C 773.30 635.80 771.30 635.50 769.50 633.50 C 769.10 633.10 768.40 632.60 767.70 632.40 C 765.50 631.50 763.20 630.80 760.80 630.40 C 753.70 629.70 746.90 627.50 740.70 623.90 C 733.30 619.40 725.30 616.10 716.80 613.80 C 685.70 605.80 656.50 611.10 627.70 623.60 C 626.80 624.00 625.70 623.60 625.50 622.70 C 625.50 622.50 625.50 622.50 625.30 622.30 L 623.10 608.90 C 623.10 608.70 622.90 608.50 622.40 608.50 L 622.40 608.50 C 622.20 608.50 622.00 608.50 621.70 608.70 C 621.50 608.90 621.30 609.10 621.50 609.40 C 621.30 614.30 621.30 619.20 621.70 624.10 C 621.70 625.00 621.50 626.10 620.60 626.80 C 616.60 630.40 612.30 633.70 607.60 636.20 C 602.70 638.90 598.00 641.80 593.50 644.90 C 585.50 650.30 577.00 655.00 568.50 659.00 C 567.20 659.70 566.30 659.20 566.00 657.90 L 561.10 638.90 C 560.90 638.50 560.40 638.00 560.00 638.00 L 559.30 638.00 C 559.10 638.00 558.90 638.20 558.90 638.40 C 558.90 638.40 558.90 638.40 558.90 638.60 C 561.60 650.90 562.90 663.60 562.70 676.10 C 562.70 683.70 560.90 691.30 557.30 698.00 C 554.20 700.70 551.50 703.40 549.00 706.00 C 547.40 707.60 544.30 708.70 539.80 709.40 C 536.70 709.80 533.50 710.50 530.60 711.60 C 523.50 714.30 516.30 717.00 509.40 719.40 C 495.50 724.30 481.50 728.60 467.20 731.90 C 463.00 729.90 460.10 725.00 458.30 717.60 C 465.90 709.60 472.60 700.40 478.20 690.80 C 489.80 676.90 499.00 661.10 505.00 644.10 C 508.40 635.80 508.80 626.90 506.30 618.40 C 502.10 605.40 494.00 597.00 482.40 592.90 C 477.70 591.30 469.90 591.10 458.50 592.00 C 403.80 596.90 349.30 599.60 294.50 600.00 C 295.80 598.00 298.30 596.90 300.80 597.50 C 301.90 597.70 303.30 597.10 303.90 596.20 C 304.60 595.30 304.30 594.90 303.20 594.90 L 301.60 594.90 C 300.90 594.90 300.30 594.70 299.80 594.20 C 297.80 592.40 296.20 590.20 295.30 587.50 C 294.60 585.00 293.50 582.60 292.40 580.40 C 289.70 575.00 286.80 569.70 283.90 564.50 C 283.00 562.90 282.10 561.60 281.00 560.30 C 279.90 559.00 278.80 557.60 277.60 556.30 C 276.90 555.20 275.60 555.00 274.50 555.90 C 274.30 556.10 274.10 556.10 274.10 556.30 C 272.30 558.80 270.10 560.80 267.20 562.10 C 271.00 558.70 274.10 555.20 277.00 551.20 C 280.10 545.20 279.00 538.50 273.40 530.60 C 285.00 524.80 298.60 517.60 306.70 507.80 C 307.80 506.20 307.80 504.20 306.70 502.90 C 305.10 500.90 302.90 499.30 300.20 498.70 C 290.40 495.60 263.10 486.60 256.20 490.00 C 256.60 487.80 257.10 485.50 257.30 483.30 C 257.50 481.10 258.00 478.80 258.60 476.60 C 259.90 472.60 261.70 468.60 264.00 464.80 C 266.50 461.20 268.50 457.40 270.00 453.40 C 272.20 448.30 274.00 444.50 275.40 441.80 C 278.10 436.70 280.30 431.30 282.50 425.90 C 283.20 424.10 282.30 422.30 283.20 420.30 C 285.40 415.40 287.90 410.70 290.80 406.00 C 291.20 405.30 291.50 404.70 291.70 404.00 C 292.10 402.20 292.80 400.20 293.50 398.40 C 296.00 391.90 293.90 387.90 287.50 387.00 C 292.90 381.00 299.60 376.70 307.20 374.30 C 307.90 374.10 308.50 373.60 308.80 373.00 L 310.80 369.20 C 310.80 369.40 310.80 369.60 310.80 369.90 C 310.60 371.00 311.20 371.90 312.40 372.10 C 312.80 372.10 313.30 372.10 313.70 371.90 L 323.30 366.80 C 324.00 366.60 324.20 365.90 324.20 365.20 C 324.20 364.10 324.00 363.00 323.10 362.30 L 322.40 361.90 C 320.80 360.80 319.70 359.40 319.00 357.90 C 319.70 356.60 320.30 355.40 321.20 354.50 C 333.00 339.50 347.10 326.60 363.00 316.10 C 369.20 312.10 375.50 305.90 382.20 313.00 Z M 360.90 348.80 C 356.70 353.30 354.60 360.40 353.50 366.40 C 353.30 367.10 353.50 368.00 353.70 368.40 C 355.70 372.40 360.40 374.00 364.40 372.00 C 364.60 371.80 364.80 371.80 365.10 371.60 C 369.60 368.90 372.70 364.50 373.80 359.30 C 375.50 353.70 367.90 341.00 360.90 348.80 L 360.90 348.80 Z M 539.70 362.40 C 539.00 363.10 538.60 364.40 539.00 365.30 C 539.40 366.90 539.90 368.40 539.90 370.00 C 540.60 375.40 542.60 380.50 545.70 385.00 C 551.70 393.30 574.70 394.40 572.30 378.10 C 570.70 368.30 558.90 362.20 550.00 359.80 C 546.40 358.40 542.10 359.30 539.70 362.40 L 539.70 362.40 Z M 428.20 383.20 L 407.90 411.60 C 407.70 411.80 407.70 412.00 407.90 412.30 L 408.10 412.30 C 408.80 412.30 409.70 412.30 410.10 411.60 C 414.80 408.00 419.00 403.60 422.20 398.40 C 425.10 393.30 428.20 388.10 431.40 382.30 C 431.60 382.10 431.40 381.60 431.20 381.40 C 431.00 381.40 431.00 381.40 430.80 381.40 L 430.10 381.60 C 429.30 382.10 428.60 382.50 428.20 383.20 L 428.20 383.20 Z M 321.60 411.80 C 320.70 420.30 334.10 426.10 340.80 428.30 C 341.20 428.50 341.90 428.30 342.10 427.90 L 342.30 427.20 L 342.30 427.00 C 337.80 424.10 333.40 421.20 328.70 418.50 C 325.80 416.70 324.70 414.00 323.30 411.40 C 322.30 409.80 321.80 409.80 321.60 411.80 Z M 481.60 512.10 C 482.70 511.90 484.10 512.10 485.20 512.50 C 485.90 512.70 486.10 513.40 485.90 514.10 L 485.90 514.10 C 485.50 515.20 484.80 516.30 483.90 517.20 C 483.20 517.60 483.00 518.30 482.80 519.20 C 481.50 529.00 486.20 536.20 495.30 539.80 C 506.90 544.50 517.90 542.50 528.40 533.50 C 537.10 526.80 539.80 514.50 534.70 504.70 C 532.50 500.00 529.10 496.00 524.90 493.10 C 524.70 492.90 524.20 493.10 523.80 493.30 C 523.80 486.40 520.70 480.10 515.10 476.10 C 514.70 475.90 514.20 475.90 514.00 476.30 C 514.00 476.50 513.80 476.50 513.80 476.70 C 514.00 483.60 516.00 490.60 519.80 496.40 C 523.40 496.40 525.40 497.70 525.20 500.60 C 525.20 501.30 525.40 501.90 525.60 502.60 C 530.10 508.90 533.00 512.90 529.80 520.90 C 525.10 533.00 515.70 538.30 501.70 537.00 C 489.60 535.90 484.90 526.30 489.60 515.30 C 492.30 508.60 498.10 503.70 505.20 502.10 C 505.60 501.90 506.30 501.70 506.50 501.40 C 506.90 501.00 507.40 500.70 508.10 500.50 C 509.00 500.10 509.70 500.10 510.10 500.50 C 510.50 500.90 510.80 501.40 510.10 501.80 C 509.90 502.00 509.70 502.20 509.40 502.50 C 507.40 505.20 508.30 506.10 511.40 505.60 C 513.60 505.20 515.40 503.60 516.30 501.60 C 516.70 500.90 516.70 500.30 516.30 499.60 C 515.40 497.80 514.10 496.20 512.30 495.40 C 511.60 495.00 511.00 495.00 510.30 495.20 C 502.90 496.80 499.10 500.80 493.50 504.60 C 491.50 505.90 489.00 506.80 486.60 506.80 C 484.20 506.80 481.70 506.80 479.00 506.60 L 452.60 496.80 C 451.90 496.60 451.70 495.90 451.90 495.20 C 451.90 495.00 452.10 494.80 452.30 494.50 L 482.90 476.60 C 483.60 476.20 484.20 475.70 484.50 474.80 C 485.60 472.30 485.60 471.00 484.30 470.30 C 482.30 469.20 479.80 469.00 477.60 469.90 C 463.50 475.90 446.10 484.20 439.60 494.50 C 439.20 495.20 439.20 495.80 439.20 496.50 C 439.90 499.40 442.30 501.90 446.80 503.40 C 458.60 507.90 470.00 510.80 481.60 512.10 L 481.60 512.10 Z M 633.70 515.40 C 633.90 516.30 634.40 517.20 635.00 517.60 L 639.50 520.50 C 641.10 521.40 643.10 520.90 644.00 519.40 C 644.40 518.50 644.70 517.40 644.20 516.50 L 641.50 510.20 C 640.80 508.60 638.80 508.00 637.30 508.60 L 635.10 509.50 C 633.80 510.20 632.90 511.50 633.30 513.10 L 633.70 515.40 Z M 362.30 510.10 C 362.30 509.40 360.30 509.00 357.80 509.20 C 355.30 509.40 353.60 509.90 353.60 510.50 C 353.60 511.20 355.60 511.60 358.10 511.40 C 360.50 511.20 362.30 510.80 362.30 510.10 L 362.30 510.10 Z M 672.10 525.50 C 675.00 525.10 677.20 522.40 676.80 519.50 C 676.60 518.60 676.40 517.70 675.70 516.80 L 672.60 512.60 C 671.30 510.80 669.00 510.10 667.00 510.60 L 664.30 511.30 C 662.10 511.70 660.30 513.80 660.10 516.20 L 659.70 520.70 C 659.50 523.80 661.70 526.50 664.60 526.70 C 665.00 526.70 665.50 526.70 665.70 526.70 L 672.10 525.50 Z M 440.70 536.90 C 440.70 536.50 440.70 536.20 440.70 535.80 C 440.70 534.90 439.80 534.20 438.90 534.20 C 438.70 534.20 438.50 534.20 438.50 534.40 C 434.00 536.00 430.00 538.40 426.70 541.50 C 426.30 541.90 426.00 542.60 426.00 543.30 C 426.00 544.00 426.70 544.40 427.10 544.20 L 427.30 544.20 L 437.60 540.00 C 439.30 539.60 440.20 538.50 440.70 536.90 Z M 562.50 557.90 C 568.30 559.50 574.10 555.90 575.70 550.10 C 577.30 544.30 573.70 538.50 567.90 536.90 C 562.10 535.30 556.30 538.90 554.70 544.70 C 554.70 544.90 554.70 545.10 554.50 545.40 C 553.30 551.00 556.90 556.60 562.50 557.90 L 562.50 557.90 Z M 422.60 548.30 C 418.80 551.70 415.20 552.30 411.00 549.40 C 410.60 549.00 410.10 548.50 409.90 547.80 C 409.70 547.10 409.70 546.50 409.70 545.80 C 409.70 545.10 409.30 544.50 408.60 544.50 L 408.60 544.50 C 406.10 544.10 403.70 543.80 401.00 544.10 C 387.80 544.10 374.90 545.90 362.10 549.20 C 356.70 550.80 351.20 551.70 345.80 552.30 C 340.20 552.50 334.60 552.30 329.00 551.60 C 324.10 550.90 321.40 547.40 316.70 547.10 C 316.00 547.10 315.60 547.10 315.10 547.50 C 314.70 547.90 314.40 548.40 314.40 549.10 C 314.40 549.80 314.80 550.40 315.30 550.90 C 317.50 552.50 320.20 553.60 322.90 553.80 C 325.80 554.00 332.30 554.70 342.60 555.80 C 346.20 556.20 349.50 555.80 352.90 554.90 C 365.90 550.90 379.50 548.20 392.90 547.10 C 400.50 546.00 408.30 548.00 414.60 552.20 C 415.30 552.60 416.20 552.90 417.10 552.60 C 419.80 552.20 422.20 550.80 423.80 548.60 C 425.30 546.50 425.10 546.10 422.60 548.30 L 422.60 548.30 Z M 744.80 586.00 C 746.10 586.40 747.50 586.00 748.40 584.90 L 750.60 582.40 C 751.70 581.10 751.70 578.80 750.20 577.50 C 750.00 577.30 749.80 577.10 749.30 577.10 L 745.30 575.30 C 743.70 574.60 741.90 575.30 741.10 576.60 L 739.30 579.70 C 738.40 581.30 738.90 583.50 740.40 584.40 C 740.60 584.60 740.80 584.60 741.30 584.80 L 744.80 586.00 Z M 794.80 586.70 C 795.20 586.30 794.40 583.80 792.60 581.30 C 790.80 578.60 789.00 576.80 788.40 577.10 C 787.80 577.40 788.80 579.80 790.60 582.50 C 792.40 585.20 794.10 586.90 794.80 586.70 L 794.80 586.70 Z M 764.40 583.40 C 761.90 582.30 759.00 583.40 757.90 585.90 C 757.50 586.80 757.50 587.70 757.70 588.80 L 758.60 593.50 C 758.80 594.80 759.70 596.00 760.80 596.60 L 763.50 598.40 C 765.70 600.00 768.60 599.30 770.20 597.10 C 770.40 596.90 770.40 596.70 770.60 596.20 L 772.20 592.20 C 773.10 589.70 772.00 587.10 769.70 585.90 L 764.40 583.40 Z" fill="#ffa490" fill-rule="nonzero" node-id="85" stroke="none" target-height="426.00003" target-width="557.6" target-x="256.2" target-y="305.9"></path><path d="M 382.20 313.00 C 391.80 320.80 399.80 330.00 406.60 340.30 C 410.40 346.60 414.60 352.80 419.30 358.60 L 412.20 357.90 C 413.80 357.70 414.00 356.60 412.90 354.50 C 405.10 340.00 394.80 327.20 382.50 316.50 C 382.10 316.10 381.60 315.60 381.40 314.90 C 381.00 314.40 381.50 313.30 382.20 313.00 L 382.20 313.00 Z" fill="#df615d" fill-rule="nonzero" node-id="87" stroke="none" target-height="45.600006" target-width="38.299988" target-x="381" target-y="313"></path><path d="M 403.20 356.60 C 403.40 357.00 403.40 357.50 403.20 357.70 C 401.60 357.30 399.80 357.70 398.70 358.80 C 398.30 359.20 397.80 359.90 397.80 360.80 C 397.80 362.60 397.60 364.40 397.10 366.20 C 393.30 375.80 388.60 385.20 382.80 393.90 C 382.40 394.80 381.50 395.20 380.60 395.20 C 380.20 395.20 379.70 394.80 379.70 394.30 C 379.70 394.10 379.70 394.10 379.70 393.90 C 383.30 384.30 386.40 374.70 389.30 365.10 C 390.40 362.60 390.40 360.00 389.30 357.50 C 385.30 349.00 378.60 342.30 370.30 338.10 C 368.30 337.20 365.80 337.40 364.00 338.80 C 353.10 345.90 345.20 353.10 341.00 366.10 C 339.90 369.70 339.90 373.50 341.20 377.00 C 344.10 384.40 347.90 389.50 348.10 397.60 C 348.10 399.40 347.70 399.60 346.30 398.30 C 341.60 393.20 329.80 378.60 330.70 371.00 C 330.90 370.30 330.50 369.90 329.80 369.70 L 329.60 369.70 C 328.70 369.50 327.80 369.70 327.40 370.40 C 322.90 374.60 318.90 379.30 315.60 384.50 C 313.10 388.30 312.00 387.90 312.50 383.40 C 313.20 382.30 313.80 381.20 314.70 380.00 C 318.10 375.80 322.10 372.00 326.30 368.60 C 329.40 365.90 332.10 363.00 334.60 359.70 C 337.10 356.60 340.00 353.70 343.30 351.20 C 348.90 347.20 354.00 342.70 358.90 337.80 C 361.10 335.30 364.00 333.80 367.40 332.90 C 368.70 332.50 370.30 332.70 371.40 333.60 C 379.00 338.70 386.10 344.50 392.40 351.20 C 395.30 353.90 399.10 355.90 403.20 356.60 Z" fill="#e54a3e" fill-rule="nonzero" node-id="89" stroke="none" target-height="67.100006" target-width="91.399994" target-x="312" target-y="332.5"></path><g node-id="240"><path d="M 265.69 336.69 L 266.84 337.01 L 267.89 337.67 L 268.88 338.72 L 269.99 340.69 L 270.80 343.36 L 271.17 346.28 L 271.07 349.63 L 270.47 352.92 L 269.51 355.70 L 268.16 358.14 L 266.66 359.84 L 265.48 360.67 L 264.31 361.09 L 263.12 361.16 L 261.96 360.84 L 260.91 360.19 L 259.93 359.13 L 258.82 357.16 L 258.00 354.50 L 257.64 351.57 L 257.74 348.23 L 258.34 344.94 L 259.30 342.15 L 260.65 339.71 L 262.15 338.01 L 263.33 337.19 L 264.49 336.76 L 265.69 336.69 Z" fill="#cbda66" fill-rule="nonzero" group-id="1" node-id="93" stroke="none" target-height="24.464691" target-width="13.528107" target-x="257.63815" target-y="336.69354"></path></g><path d="M 648.20 341.40 C 648.90 338.90 651.30 337.40 653.80 337.80 L 658.70 338.90 C 664.30 340.20 668.10 345.20 667.00 350.10 L 666.80 351.40 C 665.70 356.30 660.10 359.20 654.50 357.90 L 649.60 356.80 C 647.10 356.10 645.60 353.70 646.00 351.20 L 648.20 341.40 Z" fill="#f4c5a9" fill-rule="nonzero" node-id="96" stroke="none" target-height="21.800018" target-width="22.5" target-x="645.6" target-y="337.4"></path><path d="M 489.20 368.20 L 449.90 358.40 C 448.80 358.20 447.70 358.60 447.00 359.50 C 445.20 362.40 442.50 362.40 438.70 359.50 C 446.70 356.10 454.30 352.40 461.50 347.90 C 465.30 345.20 470.40 345.20 474.00 348.10 C 478.40 351.70 483.60 358.40 489.20 368.20 Z" fill="#ce6e83" fill-rule="nonzero" node-id="98" stroke="none" target-height="23" target-width="50.5" target-x="438.7" target-y="345.2"></path><path d="M 353.60 366.20 C 354.70 360.20 356.70 353.20 361.00 348.60 C 368.10 340.80 375.50 353.50 374.20 359.10 C 373.10 364.20 370.00 368.70 365.50 371.40 C 361.70 373.90 356.80 372.70 354.60 368.90 C 354.40 368.70 354.40 368.50 354.20 368.20 C 353.60 367.80 353.30 366.90 353.60 366.20 Z" fill="#ffecd2" fill-rule="nonzero" node-id="100" stroke="none" target-height="33.100006" target-width="22.200012" target-x="353.3" target-y="340.8"></path><path d="M 581.70 360.60 C 576.30 363.70 571.60 364.80 568.10 363.70 C 563.00 362.10 557.80 360.10 553.10 357.40 C 551.30 356.70 550.00 354.90 550.00 352.90 C 556.00 349.50 561.40 348.90 565.90 350.40 C 571.60 352.80 577.00 356.40 581.70 360.60 Z" fill="#ea372a" fill-rule="nonzero" node-id="102" stroke="none" target-height="15.899994" target-width="31.700012" target-x="550" target-y="348.9"></path><path d="M 403.20 356.60 L 412.10 357.90 L 419.20 358.60 L 428.60 357.90 C 429.50 358.60 429.90 359.20 429.50 359.90 C 429.30 360.60 428.60 360.80 427.90 361.00 L 422.80 362.80 C 422.10 363.00 421.70 363.90 421.90 364.60 C 421.90 364.80 422.10 365.00 422.30 365.30 L 430.80 371.80 C 431.20 372.70 431.50 373.60 431.50 374.50 C 430.80 376.10 429.90 376.30 428.60 375.20 C 420.80 368.30 412.10 362.50 402.70 357.60 C 403.60 357.50 403.60 357.30 403.20 356.60 Z" fill="#c33935" fill-rule="nonzero" node-id="104" stroke="none" target-height="19.699982" target-width="28.799988" target-x="402.7" target-y="356.6"></path><path d="M 428.60 357.90 C 432.00 357.50 435.50 358.10 438.70 359.70 C 442.50 362.60 445.20 362.60 447.00 359.70 C 447.70 358.80 448.80 358.10 449.90 358.60 L 489.20 368.40 C 491.90 372.00 495.20 374.90 499.30 376.90 C 499.70 377.10 500.00 377.60 499.70 378.00 C 499.70 378.20 499.50 378.20 499.50 378.40 L 490.80 388.90 C 490.10 389.30 489.50 389.80 489.00 390.20 C 488.10 391.50 486.10 391.80 485.00 390.60 C 472.30 380.30 457.30 373.00 441.40 368.90 C 439.80 368.50 438.30 368.50 436.70 368.70 C 434.70 368.90 432.70 370.00 431.60 371.80 L 423.10 365.30 C 422.40 364.90 422.40 364.00 422.90 363.30 C 423.10 363.10 423.30 362.90 423.60 362.90 L 428.70 361.10 C 429.40 360.90 429.80 360.70 430.30 360.00 C 430.00 359.30 429.70 358.60 428.60 357.90 Z" fill="#e54a3e" fill-rule="nonzero" node-id="106" stroke="none" target-height="34.299988" target-width="77.600006" target-x="422.4" target-y="357.5"></path><path d="M 311.80 370.00 L 318.90 358.20 C 319.60 359.80 320.70 361.30 322.30 362.20 L 323.90 363.10 C 324.60 363.80 325.00 364.90 325.00 366.00 C 325.00 366.70 324.60 367.10 324.10 367.60 L 314.50 372.70 C 313.60 373.10 312.50 372.90 311.80 372.00 C 311.60 371.60 311.60 371.10 311.60 370.70 C 311.80 370.50 311.80 370.20 311.80 370.00 Z" fill="#b14f59" fill-rule="nonzero" node-id="108" stroke="none" target-height="14.899994" target-width="13.399994" target-x="311.6" target-y="358.2"></path><path d="M 539.70 362.20 C 542.40 359.30 546.40 358.20 550.00 359.50 C 558.90 362.20 570.80 368.00 572.30 377.80 C 575.00 394.30 552.00 393.00 545.70 384.70 C 542.60 380.20 540.30 375.10 539.90 369.70 C 539.90 368.10 539.50 366.60 539.00 365.00 C 538.50 364.20 538.80 363.10 539.70 362.20 Z" fill="#e54a3e" fill-rule="nonzero" node-id="110" stroke="none" target-height="36.099976" target-width="36.5" target-x="538.5" target-y="358.2"></path><path d="M 587.70 369.30 C 589.70 372.90 591.10 376.90 591.70 381.10 C 592.40 394.30 593.30 407.00 594.40 419.80 C 594.40 420.50 594.80 420.70 595.50 420.20 C 597.70 418.90 599.70 417.10 601.50 415.30 C 602.40 414.40 604.00 414.20 604.90 415.10 C 605.10 415.30 605.10 415.30 605.30 415.50 C 609.10 421.10 608.90 428.50 604.60 433.80 C 603.30 435.80 603.70 438.50 605.70 440.10 C 605.90 440.30 606.10 440.50 606.60 440.50 C 610.00 442.10 613.70 442.70 617.50 442.70 C 620.00 442.70 622.20 443.80 623.80 445.80 L 641.90 471.30 C 642.80 472.40 643.20 473.50 643.70 474.90 C 643.90 475.80 643.50 476.90 642.60 477.10 C 642.20 477.30 641.70 477.30 641.50 477.10 C 629.00 472.40 617.10 467.50 606.00 459.70 C 597.50 453.90 588.10 449.20 578.30 445.80 C 577.90 445.60 577.20 445.60 576.70 445.80 C 575.80 446.20 574.90 447.10 574.70 448.30 C 574.00 447.90 573.40 447.40 572.90 446.50 C 578.30 439.40 583.60 432.20 589.00 425.10 C 590.80 422.60 591.50 419.70 591.20 416.80 C 590.40 401.10 589.30 385.20 587.70 369.30 Z" fill="#469da7" fill-rule="nonzero" node-id="112" stroke="none" target-height="108" target-width="71" target-x="572.9" target-y="369.3"></path><path d="M 751.90 416.90 C 751.90 426.50 744.80 435.90 734.30 432.10 C 730.90 431.00 727.80 430.10 727.60 426.30 C 727.40 422.50 727.60 420.30 724.50 417.80 C 721.80 416.20 719.40 414.40 717.10 412.40 C 712.00 406.60 712.00 401.00 717.50 395.40 C 719.70 393.20 721.70 393.40 724.40 392.70 C 725.30 392.50 726.00 391.80 726.20 390.90 L 729.10 381.70 C 729.50 380.60 730.20 379.70 731.10 379.00 C 735.30 376.30 740.70 375.60 745.40 377.40 C 751.20 379.20 752.10 389.20 753.70 394.40 C 753.90 395.50 754.80 396.20 755.90 396.40 C 769.10 398.40 766.80 416.10 753.20 415.40 C 752.60 415.10 751.90 416.00 751.90 416.90 L 751.90 416.90 Z M 734.90 419.20 C 735.30 420.50 736.70 421.40 738.00 421.00 C 738.40 420.80 738.90 420.60 739.30 420.10 L 744.90 413.80 C 745.60 412.90 745.80 411.80 745.10 410.70 L 742.40 406.20 C 741.70 405.10 740.40 404.60 739.30 405.10 L 733.90 407.10 C 732.60 407.50 732.10 408.90 732.30 410.20 L 734.90 419.20 Z" fill="#ffc156" fill-rule="nonzero" node-id="114" stroke="none" target-height="60.299988" target-width="57.099976" target-x="712" target-y="375.6"></path><path d="M 428.40 383.20 C 428.80 382.50 429.50 382.10 430.20 381.90 L 430.90 381.70 C 431.10 381.70 431.60 381.70 431.60 382.10 C 431.60 382.30 431.60 382.30 431.60 382.50 C 428.50 388.10 425.60 393.40 422.40 398.60 C 419.30 403.70 415.30 408.20 410.30 411.80 C 409.90 412.20 409.00 412.50 408.30 412.50 C 408.10 412.50 407.90 412.30 407.90 412.10 L 407.90 411.90 L 428.40 383.20 Z" fill="#e54a3e" fill-rule="nonzero" node-id="116" stroke="none" target-height="30.799988" target-width="23.700012" target-x="407.9" target-y="381.7"></path><path d="M 288.50 387.90 C 295.00 389.00 297.00 392.80 294.50 399.30 C 293.80 401.10 293.20 402.90 292.70 404.90 C 292.50 405.60 292.30 406.20 291.80 406.90 C 288.90 411.40 286.20 416.30 284.20 421.20 C 283.30 423.20 284.20 425.00 283.50 426.80 C 281.50 432.20 279.00 437.50 276.40 442.70 C 275.10 445.40 273.30 449.20 271.00 454.30 C 269.40 458.30 267.20 462.10 265.00 465.70 C 262.80 469.50 261.00 473.50 259.60 477.50 C 258.90 479.70 258.50 482.00 258.30 484.20 C 258.10 486.40 257.90 488.70 257.20 490.90 L 255.00 493.10 C 253.90 494.20 253.90 495.80 255.00 496.90 C 255.40 497.30 255.90 497.60 256.30 497.60 C 269.50 499.80 282.40 503.00 295.00 507.20 C 295.40 507.40 295.90 507.90 295.70 508.50 C 295.70 508.70 295.50 508.90 295.30 508.90 L 277.20 522.10 C 273.00 525.50 269.40 527.20 266.50 527.20 C 262.00 527.20 257.80 527.20 253.30 527.20 C 252.00 527.00 250.60 527.40 249.70 528.10 C 248.80 529.20 248.60 530.80 249.00 532.10 C 249.00 532.80 249.40 533.40 250.10 533.70 C 250.80 534.10 251.40 533.90 252.10 533.50 C 252.80 532.80 253.70 532.60 254.60 532.60 L 269.80 534.20 C 270.50 534.20 271.10 534.60 271.40 535.30 C 275.20 542.00 275.60 547.80 272.30 552.70 C 267.40 560.50 258.00 564.80 248.80 563.00 C 239.40 561.90 226.70 558.10 226.90 546.50 C 226.90 543.40 226.90 540.00 226.70 536.90 C 226.70 535.10 225.60 533.30 223.80 532.70 C 223.40 532.50 223.10 531.40 223.40 529.60 C 224.30 528.50 225.00 526.90 225.40 525.60 C 225.40 522.50 224.50 522.20 222.70 524.70 C 220.90 527.20 219.60 529.60 217.80 532.70 C 214.70 538.30 214.90 541.90 218.70 542.80 C 220.90 544.60 222.30 546.80 223.20 549.50 C 223.90 552.00 225.00 554.40 226.30 556.60 C 233.20 565.80 247.30 569.10 258.00 568.20 C 262.00 567.50 265.60 565.70 268.50 563.10 C 271.20 561.80 273.60 559.70 275.40 557.30 C 276.10 556.20 277.40 556.00 278.50 556.90 C 278.70 557.10 278.90 557.10 278.90 557.30 C 280.00 558.60 281.10 560.00 282.30 561.30 C 283.40 562.60 284.50 564.00 285.20 565.50 C 288.10 570.90 290.80 576.20 293.70 581.40 C 294.80 583.60 295.90 586.10 296.60 588.50 C 297.50 591.20 299.10 593.40 301.10 595.20 C 301.50 595.60 302.20 595.90 302.90 595.90 L 304.50 595.90 C 305.60 595.90 305.80 596.30 305.20 597.20 C 304.50 598.10 303.40 598.80 302.10 598.50 C 299.60 597.80 297.20 598.90 295.80 601.00 C 292.90 601.20 290.00 601.70 286.90 601.70 C 274.40 602.40 267.00 607.50 261.40 619.30 C 257.40 627.10 254.30 635.20 251.60 643.70 C 249.40 643.70 247.40 643.70 245.30 643.70 C 243.30 643.70 241.30 643.70 239.00 643.90 C 231.20 645.00 223.40 645.00 215.50 643.50 C 207.70 636.60 201.00 637.20 195.20 645.50 C 193.90 645.90 192.50 645.70 191.60 644.60 C 191.20 644.40 191.20 643.70 191.40 643.30 C 191.40 643.10 191.60 643.10 191.80 643.10 C 195.20 640.60 197.40 637.30 198.10 633.30 C 198.80 629.50 197.20 626.60 193.40 624.60 C 192.50 623.90 191.20 624.20 190.30 624.60 C 189.90 624.80 189.40 624.80 189.20 624.60 C 189.20 624.60 189.00 624.40 189.00 624.20 C 188.60 623.30 188.60 622.20 189.00 621.30 C 189.20 620.60 189.90 620.20 190.80 620.20 C 192.80 620.20 194.60 618.90 195.30 616.80 C 196.40 613.70 197.50 613.70 198.40 617.00 C 199.70 622.60 203.10 632.60 209.80 633.50 C 210.50 633.70 211.10 633.30 211.60 632.80 C 212.90 631.00 214.50 629.70 216.30 628.80 C 218.80 628.10 220.30 625.70 219.70 623.20 C 219.70 623.00 219.50 622.50 219.50 622.30 C 215.90 611.40 209.90 607.60 201.00 611.40 C 200.30 611.80 199.40 611.80 199.00 611.20 C 198.80 611.00 198.80 610.80 198.80 610.30 L 197.90 606.90 C 197.90 606.70 197.70 606.20 197.20 606.20 C 196.50 606.00 196.10 605.30 195.90 604.90 C 194.60 601.80 192.10 599.30 189.00 598.00 L 208.90 597.30 C 209.60 597.30 210.20 597.10 210.90 596.60 C 212.00 595.90 213.10 595.30 214.50 594.80 C 215.60 594.40 216.10 593.50 216.10 591.90 L 238.20 603.30 L 238.40 603.30 L 238.40 603.00 C 233.30 599.60 228.10 596.10 223.00 592.70 C 217.90 589.30 212.90 585.60 208.30 581.50 C 199.10 573.20 194.20 561.80 193.30 547.50 L 209.80 518.50 C 210.20 517.80 210.70 517.40 211.40 516.90 C 213.40 515.80 215.00 514.00 215.60 511.80 C 220.70 498.60 225.90 485.40 231.20 472.00 C 236.10 458.60 242.10 445.90 249.10 433.60 C 259.30 416.50 272.90 401.10 288.50 387.90 Z M 244.50 529.10 L 246.50 508.30 C 246.50 508.10 246.30 508.10 246.30 508.10 L 246.30 508.10 C 242.90 507.90 239.80 512.10 239.20 517.70 L 239.20 518.80 C 238.80 524.40 241.00 529.10 244.30 529.50 L 244.30 529.50 C 244.30 529.30 244.50 529.30 244.50 529.10 L 244.50 529.10 L 244.50 529.10 Z" fill="#feac9f" fill-rule="nonzero" node-id="118" stroke="none" target-height="258.00003" target-width="117.19998" target-x="188.6" target-y="387.9"></path><path d="M 199.90 405.80 C 195.00 408.90 190.50 412.90 187.20 417.60 C 186.80 418.30 186.50 419.20 187.00 419.80 C 189.70 426.50 194.10 432.80 202.20 429.90 C 206.20 428.30 210.00 426.10 213.10 423.20 C 214.20 422.30 214.40 420.70 213.50 419.60 C 211.70 416.70 210.60 413.10 210.10 409.50 C 213.50 410.40 216.60 412.20 219.50 414.20 C 220.20 414.60 220.80 414.90 221.50 414.90 C 226.90 415.10 235.80 421.80 239.60 425.20 C 240.30 425.90 240.90 426.10 241.80 426.10 C 244.00 426.10 246.00 425.70 248.10 424.80 C 249.90 424.10 250.30 424.60 249.40 426.10 C 246.70 431.70 243.40 437.00 238.90 441.50 C 226.20 460.90 216.30 482.40 210.30 504.90 C 210.10 505.80 210.50 506.50 211.20 506.90 C 211.90 507.10 212.10 507.10 212.30 506.70 L 208.30 515.20 C 209.60 510.70 208.30 507.60 204.50 506.00 C 198.00 503.50 188.00 501.30 183.50 495.70 C 179.00 490.10 172.10 481.40 163.60 470.00 C 162.90 468.90 162.30 468.00 161.60 466.90 C 160.50 464.90 159.40 464.20 158.20 464.70 C 160.70 456.00 162.90 447.10 164.50 438.10 C 164.70 437.20 165.40 436.50 166.10 436.30 L 166.30 438.50 C 166.30 439.20 166.70 439.80 167.40 440.30 C 174.50 444.50 182.10 440.50 185.90 433.80 C 186.30 433.10 186.30 432.50 186.10 431.80 C 184.80 424.90 180.70 419.30 172.90 421.70 C 175.60 415.70 184.30 404.10 190.80 403.20 C 194.90 402.80 197.80 403.70 199.90 405.80 Z M 201.20 460.00 C 219.30 452.90 198.70 430.50 190.30 438.60 C 185.40 443.10 182.70 449.80 183.40 456.50 C 184.00 465.60 195.20 462.50 201.20 460.00 L 201.20 460.00 Z" fill="#fbb2b1" fill-rule="nonzero" node-id="120" stroke="none" target-height="112.400024" target-width="92.100006" target-x="158.2" target-y="402.8"></path><path d="M 734.90 419.20 L 732.40 410.70 C 732.00 409.40 732.60 408.00 734.00 407.60 L 739.40 405.60 C 740.50 405.20 741.90 405.60 742.50 406.70 L 745.20 411.20 C 745.90 412.10 745.60 413.40 745.00 414.30 L 739.40 420.60 C 738.50 421.70 736.70 421.70 735.80 420.80 C 735.10 419.80 734.90 419.60 734.90 419.20 Z" fill="#ffd9bf" fill-rule="nonzero" node-id="122" stroke="none" target-height="16.5" target-width="13.900024" target-x="732" target-y="405.2"></path><path d="M 199.90 405.80 L 210.20 409.40 C 210.40 413.00 211.50 416.30 213.60 419.50 C 214.30 420.60 214.00 422.20 213.20 423.10 C 210.10 426.00 206.30 428.20 202.30 429.80 C 194.30 432.70 189.60 426.40 187.10 419.70 C 186.70 419.00 186.90 418.10 187.30 417.50 C 190.50 412.90 194.90 408.90 199.90 405.80 Z" fill="#da919e" fill-rule="nonzero" node-id="124" stroke="none" target-height="26.900024" target-width="27.600006" target-x="186.7" target-y="405.8"></path><path d="M 340.80 428.50 C 334.10 426.00 320.90 420.50 321.60 412.00 C 321.80 410.00 322.30 410.00 323.40 411.60 C 325.00 414.30 326.10 417.00 328.80 418.70 C 333.30 421.40 337.70 424.10 342.40 427.20 L 342.40 427.40 L 342.20 428.10 C 341.70 428.30 341.30 428.50 340.80 428.50 Z" fill="#f46e66" fill-rule="nonzero" node-id="126" stroke="none" target-height="18.5" target-width="21.5" target-x="320.9" target-y="410"></path><path d="M 166.80 436.40 L 173.90 421.70 C 181.50 419.50 185.50 424.80 187.10 431.80 C 187.30 432.50 187.10 433.40 186.90 433.80 C 183.30 440.50 175.50 444.70 168.40 440.30 C 167.70 439.90 167.30 439.20 167.30 438.50 L 166.80 436.40 Z" fill="#ce6e83" fill-rule="nonzero" node-id="128" stroke="none" target-height="25.200012" target-width="20.5" target-x="166.8" target-y="419.5"></path><path d="M 820.00 430.60 L 827.40 434.80 C 829.90 436.10 830.80 439.30 829.40 441.70 C 829.40 441.70 829.40 441.90 829.20 441.90 L 824.70 448.60 C 824.30 449.30 824.00 449.90 824.00 450.80 L 824.00 453.90 C 824.00 454.60 823.60 455.20 822.90 455.20 C 822.90 455.20 822.90 455.20 822.70 455.20 C 817.60 455.90 803.00 456.10 803.90 447.60 C 804.30 445.40 805.20 443.10 807.00 441.60 C 809.50 439.10 811.50 436.00 812.60 432.90 C 813.50 430.40 816.20 429.10 818.60 430.00 C 819.60 430.30 819.80 430.60 820.00 430.60 Z" fill="#f4c5a9" fill-rule="nonzero" node-id="130" stroke="none" target-height="27" target-width="27.799988" target-x="803" target-y="429.1"></path><path d="M 190.50 438.60 C 198.80 430.80 219.50 452.90 201.40 460.00 C 195.40 462.50 184.20 465.60 183.50 456.40 C 182.60 449.80 185.30 443.10 190.50 438.60 Z" fill="#ce6e83" fill-rule="nonzero" node-id="132" stroke="none" target-height="34.80002" target-width="36.899994" target-x="182.6" target-y="430.8"></path><path d="M 239.20 441.50 L 212.60 506.70 C 212.40 507.10 211.90 507.10 211.50 506.90 C 210.80 506.50 210.40 505.60 210.60 504.90 C 216.60 482.40 226.20 460.90 239.20 441.50 Z" fill="#e37a7b" fill-rule="nonzero" node-id="134" stroke="none" target-height="65.600006" target-width="28.800003" target-x="210.4" target-y="441.5"></path><path d="M 572.50 446.90 C 572.90 447.60 573.60 448.20 574.30 448.70 C 572.10 450.70 570.30 453.20 569.20 456.10 C 568.10 456.80 567.20 457.90 567.00 459.00 C 567.00 460.10 567.40 461.20 568.30 461.90 C 573.00 467.30 577.00 473.30 580.40 479.80 C 582.40 483.40 583.10 487.20 582.90 491.20 C 582.90 491.60 583.10 492.10 583.80 492.30 C 584.00 492.30 584.20 492.30 584.50 492.10 L 608.00 478.70 C 618.90 485.00 625.00 493.00 626.50 502.20 C 628.30 516.10 628.70 529.90 628.30 544.00 C 628.10 553.40 619.60 552.50 613.10 553.60 C 614.40 546.50 612.20 539.10 607.30 533.70 C 606.90 533.30 606.60 532.60 606.40 531.70 C 606.20 525.70 603.70 520.10 599.30 516.10 C 599.30 514.50 598.40 513.20 596.80 512.50 C 596.10 512.30 595.70 511.60 595.50 510.90 C 593.90 505.50 587.00 504.20 582.10 504.00 C 581.40 504.00 580.50 504.20 580.30 505.10 C 575.80 513.40 571.60 521.20 567.60 528.60 C 566.70 530.40 565.10 531.70 563.40 532.40 C 560.90 533.10 560.30 532.40 561.60 530.20 C 567.20 520.80 572.30 511.00 576.60 500.70 C 578.40 495.30 579.50 489.80 579.70 484.20 C 579.70 483.30 579.70 482.40 579.30 481.70 C 575.50 474.60 570.60 467.80 565.00 461.80 C 563.90 460.50 563.70 458.70 564.80 457.30 L 572.50 446.90 Z" fill="#ff8044" fill-rule="nonzero" node-id="136" stroke="none" target-height="106.69998" target-width="68.400024" target-x="560.3" target-y="446.9"></path><path d="M 569.20 455.80 C 581.90 459.20 594.20 464.50 605.20 471.90 C 607.20 473.50 608.10 475.90 607.70 478.40 L 584.20 491.80 C 583.80 492.00 583.10 492.00 582.90 491.60 C 582.90 491.40 582.70 491.20 582.70 490.90 C 583.10 486.90 582.30 483.10 580.20 479.50 C 576.80 473.00 572.80 467.20 568.10 461.90 C 567.20 461.20 566.80 460.10 566.80 459.00 C 567.10 457.40 568.00 456.20 569.20 455.80 Z" fill="#ffc156" fill-rule="nonzero" node-id="138" stroke="none" target-height="36.200012" target-width="41.299988" target-x="566.8" target-y="455.8"></path><path d="M 705.90 503.60 C 716.60 507.20 717.30 516.80 720.60 525.50 C 722.20 529.70 725.50 533.30 730.00 534.70 L 738.90 544.50 C 739.30 544.90 740.20 545.20 740.70 544.70 C 740.90 544.50 740.90 544.30 741.10 544.00 C 741.50 542.00 743.60 540.60 745.80 541.10 C 746.00 541.10 746.00 541.10 746.20 541.30 C 747.80 541.70 749.10 542.90 750.20 544.20 C 755.10 549.60 759.80 554.90 764.50 560.50 C 764.70 560.90 765.40 560.90 765.80 560.70 C 765.80 560.70 765.80 560.70 766.00 560.50 L 774.30 549.60 C 775.00 548.70 776.50 548.50 777.40 549.20 C 777.60 549.20 777.60 549.40 777.80 549.60 L 781.20 554.50 C 781.60 555.20 782.30 555.60 783.00 555.80 C 783.90 556.00 785.00 556.20 785.90 556.20 L 798.20 564.00 C 799.50 564.90 800.00 566.90 799.10 568.20 C 798.90 568.40 798.70 568.90 798.40 568.90 C 792.80 573.10 786.80 576.70 779.60 577.20 C 757.50 578.50 740.70 568.70 725.50 553.30 C 712.80 540.10 702.00 529.60 693.30 522.00 C 685.70 515.30 674.30 507.90 667.40 500.10 C 660.30 492.30 654.90 483.10 651.10 473.10 C 663.80 469.70 675.90 465.30 687.70 459.20 C 688.40 458.80 689.30 458.80 689.90 459.00 C 697.50 461.00 697.30 469.50 695.00 475.80 C 692.70 482.10 688.10 492.10 692.10 496.80 C 694.80 499.90 697.20 503.30 699.00 507.10 C 699.20 507.50 699.70 508.00 700.30 507.80 C 700.30 507.80 700.50 507.80 700.50 507.60 C 702.50 507.00 704.30 505.40 705.90 503.60 Z" fill="#439580" fill-rule="nonzero" node-id="140" stroke="none" target-height="119.70001" target-width="148.90002" target-x="651.1" target-y="458.8"></path><path d="M 783.35 464.68 L 784.08 465.62 L 784.51 466.79 L 784.65 468.23 L 784.33 470.50 L 783.34 473.15 L 781.84 475.74 L 779.70 478.38 L 777.20 480.69 L 774.72 482.36 L 772.14 483.52 L 769.90 484.00 L 768.45 483.95 L 767.26 483.59 L 766.27 482.93 L 765.54 481.98 L 765.10 480.82 L 764.96 479.37 L 765.29 477.11 L 766.27 474.46 L 767.78 471.87 L 769.92 469.22 L 772.42 466.92 L 774.90 465.24 L 777.48 464.08 L 779.72 463.61 L 781.17 463.65 L 782.36 464.02 L 783.35 464.68 Z" fill="#cbda66" fill-rule="nonzero" group-id="2" node-id="144" stroke="none" target-height="20.383942" target-width="19.688843" target-x="764.96497" target-y="463.61115"></path><path d="M 208.80 515.20 L 186.20 511.80 C 185.50 511.80 185.10 511.40 184.90 510.70 C 182.70 504.40 181.80 498.00 178.00 492.40 C 173.50 486.10 168.60 480.10 163.70 474.30 C 161.50 471.60 159.90 468.30 159.20 464.70 C 160.30 464.30 161.40 464.90 162.60 466.90 C 163.00 468.00 163.70 469.10 164.60 470.00 C 173.10 481.20 179.60 489.90 184.50 495.70 C 189.00 501.30 199.00 503.30 205.50 506.00 C 208.80 507.60 210.10 510.80 208.80 515.20 Z" fill="#677099" fill-rule="nonzero" node-id="147" stroke="none" target-height="50.900024" target-width="50.90001" target-x="159.2" target-y="464.3"></path><path d="M 479.80 506.50 C 481.40 507.20 482.50 508.50 483.40 510.10 C 483.60 510.80 483.40 511.00 482.70 511.20 C 482.00 511.40 481.80 511.90 481.60 512.30 C 470.20 511.00 458.80 508.10 448.10 504.00 C 443.60 502.40 441.20 500.00 440.50 497.10 C 440.30 496.40 440.50 495.50 440.90 495.10 C 447.40 484.80 464.60 476.30 478.90 470.50 C 481.10 469.60 483.60 469.80 485.60 470.90 C 486.90 471.60 486.90 472.90 485.80 475.40 C 485.40 476.10 484.90 476.70 484.20 477.20 L 453.60 495.10 C 453.20 495.30 452.90 496.20 453.20 496.70 C 453.40 496.90 453.60 497.10 453.90 497.10 L 479.80 506.50 Z" fill="#2c0707" fill-rule="nonzero" node-id="149" stroke="none" target-height="42.69998" target-width="46.600006" target-x="440.3" target-y="469.6"></path><path d="M 523.80 493.60 C 523.80 494.00 523.80 494.70 523.80 495.20 C 523.60 495.90 522.90 496.30 522.20 496.50 L 520.20 496.70 C 516.40 490.90 514.40 484.00 514.20 477.00 C 514.20 476.60 514.60 476.10 515.10 476.10 C 515.30 476.10 515.30 476.10 515.50 476.30 C 520.70 480.40 524.00 486.60 523.80 493.60 Z" fill="#4d1610" fill-rule="nonzero" node-id="151" stroke="none" target-height="20.600006" target-width="9.799988" target-x="514.2" target-y="476.1"></path><path d="M 274.70 531.50 L 272.70 531.30 C 270.20 531.10 269.80 530.00 271.80 528.40 C 274.00 526.60 276.00 524.40 277.60 521.90 L 295.70 508.70 C 296.10 508.30 296.40 507.80 295.90 507.10 C 295.70 506.90 295.70 506.90 295.50 506.70 C 283.00 502.50 270.00 499.10 256.80 497.10 C 255.50 496.90 254.30 495.50 254.80 494.00 C 254.80 493.60 255.20 492.90 255.50 492.70 L 257.70 490.50 C 264.60 487.10 291.90 496.10 301.70 499.20 C 304.20 499.90 306.40 501.40 308.20 503.40 C 309.30 505.00 309.30 507.00 308.20 508.30 C 299.70 518.80 286.30 525.70 274.70 531.50 Z" fill="#4d1610" fill-rule="nonzero" node-id="153" stroke="none" target-height="44.399994" target-width="54.999985" target-x="254.3" target-y="487.1"></path><path d="M 523.80 493.60 C 524.20 493.20 524.50 493.20 524.90 493.40 C 529.10 496.50 532.50 500.50 534.70 505.00 C 539.80 514.80 537.20 527.10 528.40 533.80 C 518.10 542.50 507.20 544.50 495.30 540.10 C 486.10 536.50 481.40 529.40 482.80 519.50 C 482.80 518.80 483.20 517.90 483.90 517.50 C 484.80 516.60 485.50 515.70 485.90 514.40 C 486.10 513.70 485.90 513.10 485.20 512.60 L 485.20 512.60 C 484.10 512.20 482.70 511.90 481.60 512.20 C 481.60 511.50 482.00 511.10 482.70 511.10 C 483.40 511.10 483.60 510.70 483.40 510.00 C 482.70 508.40 481.40 507.30 479.80 506.40 C 482.50 506.60 484.90 506.60 487.40 506.60 C 489.90 506.60 492.30 505.70 494.30 504.40 C 499.90 500.60 503.70 496.60 511.10 495.00 C 511.80 494.80 512.40 495.00 513.10 495.20 C 514.90 496.10 516.20 497.70 517.10 499.40 C 517.50 500.10 517.50 500.70 517.10 501.40 C 516.20 503.40 514.40 505.00 512.20 505.40 C 509.10 506.10 508.40 505.00 510.20 502.30 C 510.40 502.10 510.60 501.90 510.90 501.60 C 511.60 501.20 511.60 500.70 510.90 500.30 C 510.20 499.90 509.80 500.10 508.90 500.30 C 508.50 500.50 507.80 500.70 507.30 501.20 C 506.90 501.60 506.40 501.90 506.00 501.90 C 498.90 503.50 493.00 508.40 490.40 515.10 C 485.70 526.00 490.40 535.70 502.50 536.80 C 516.60 538.10 526.00 532.80 530.60 520.70 C 533.70 512.70 530.80 508.40 526.40 502.40 C 526.00 501.70 525.70 501.10 526.00 500.40 C 526.20 497.70 524.40 496.40 520.60 496.20 L 522.60 496.00 C 523.30 496.00 523.90 495.60 524.20 494.70 C 524.00 494.70 524.00 494.00 523.80 493.60 Z" fill="#f88b79" fill-rule="nonzero" node-id="155" stroke="none" target-height="51.299988" target-width="60" target-x="479.8" target-y="493.2"></path><path d="M 730.00 534.70 C 725.50 533.10 722.20 529.80 720.60 525.50 C 717.20 516.80 716.60 507.20 705.90 503.60 L 730.70 494.00 C 736.30 491.80 739.00 493.80 739.40 499.60 C 739.80 507.60 739.60 515.90 739.00 524.00 C 738.50 527.10 735.60 530.60 730.00 534.70 Z" fill="#a9b77c" fill-rule="nonzero" node-id="157" stroke="none" target-height="42.900024" target-width="33.899963" target-x="705.9" target-y="491.8"></path><path d="M 244.50 529.10 C 244.50 529.30 244.30 529.30 244.30 529.30 L 244.30 529.30 L 244.30 529.30 C 240.90 529.10 238.50 524.20 239.20 518.60 L 239.20 517.50 C 239.60 511.90 242.80 507.70 246.30 507.90 L 246.30 507.90 C 246.50 507.90 246.50 508.10 246.50 508.10 L 244.50 529.10 Z" fill="#4d1610" fill-rule="nonzero" node-id="159" stroke="none" target-height="21.599976" target-width="8" target-x="238.5" target-y="507.7"></path><path d="M 784.70 515.70 C 784.00 517.70 781.60 518.80 779.60 517.90 C 779.40 517.90 778.90 517.70 778.70 517.50 C 775.80 515.70 774.70 512.10 775.80 509.00 C 776.00 508.30 776.50 507.70 777.10 507.40 C 783.90 505.40 787.20 509.40 784.70 515.70 Z" fill="#ffd9bf" fill-rule="nonzero" node-id="161" stroke="none" target-height="13.399994" target-width="12.5" target-x="774.7" target-y="505.4"></path><path d="M 633.70 515.40 L 633.30 513.20 C 633.10 511.60 633.70 510.30 635.10 509.60 L 637.30 508.70 C 638.90 508.00 640.90 508.70 641.50 510.30 L 644.20 516.60 C 644.90 518.20 644.20 520.20 642.40 520.80 C 641.50 521.20 640.40 521.20 639.50 520.60 L 635.00 517.70 C 634.40 517.00 633.70 516.30 633.70 515.40 Z" fill="#ff8044" fill-rule="nonzero" node-id="163" stroke="none" target-height="13.200012" target-width="11.800049" target-x="633.1" target-y="508"></path><path d="M 361.99 510.11 L 361.75 510.50 L 360.79 510.94 L 359.54 511.22 L 357.84 511.39 L 356.13 511.36 L 354.86 511.19 L 353.86 510.83 L 353.60 510.46 L 353.83 510.08 L 354.79 509.64 L 356.04 509.36 L 357.75 509.19 L 359.46 509.21 L 360.73 509.39 L 361.72 509.75 L 361.99 510.11 Z" fill="#7a2433" fill-rule="nonzero" group-id="3" node-id="167" stroke="none" target-height="2.197998" target-width="8.392456" target-x="353.5957" target-y="509.189"></path><path d="M 672.10 525.50 L 665.80 526.40 C 662.70 526.80 660.00 524.60 659.50 521.50 C 659.50 521.10 659.50 520.60 659.50 520.40 L 659.90 515.90 C 660.10 513.40 661.90 511.70 664.10 511.00 L 666.80 510.30 C 669.00 509.90 671.00 510.70 672.40 512.30 L 675.50 516.50 C 677.30 519.00 676.80 522.30 674.40 524.10 C 674.20 524.80 673.30 525.30 672.10 525.50 Z" fill="#ff8044" fill-rule="nonzero" node-id="170" stroke="none" target-height="16.899994" target-width="17.799988" target-x="659.5" target-y="509.9"></path><path d="M 598.90 515.70 C 603.40 519.70 606.00 525.30 606.00 531.30 C 606.00 532.00 606.20 532.60 606.90 533.30 C 611.80 538.70 614.00 546.00 612.70 553.20 L 608.50 563.50 C 608.10 564.40 608.50 565.50 609.40 565.70 L 609.60 565.70 C 612.70 566.40 615.20 568.40 616.50 571.30 C 616.90 572.00 616.90 572.60 616.50 573.30 C 615.60 575.50 614.00 577.30 612.00 578.70 C 605.30 583.20 601.10 587.40 591.90 588.10 C 589.40 588.30 587.00 590.10 584.10 593.50 C 583.70 593.90 583.40 593.90 583.20 593.30 C 583.20 592.60 583.40 592.00 584.10 591.70 C 597.10 580.50 605.80 565.30 609.10 548.60 C 611.60 537.00 600.80 534.10 593.70 529.20 C 591.20 528.80 590.10 528.30 590.10 527.40 C 591.90 522.60 594.80 518.80 598.90 515.70 Z" fill="#e54a3e" fill-rule="nonzero" node-id="172" stroke="none" target-height="78.20001" target-width="33.700012" target-x="583.2" target-y="515.7"></path><path d="M 277.60 522.20 C 276.00 524.70 274.00 526.70 271.80 528.70 C 269.80 530.30 270.00 531.20 272.70 531.60 L 274.70 531.80 C 280.30 539.60 281.60 546.30 278.30 552.40 C 275.60 556.40 272.30 560.20 268.50 563.30 C 265.60 566.00 261.80 567.80 258.00 568.40 C 247.30 569.30 233.20 565.90 226.30 556.80 C 225.00 554.60 223.80 552.10 223.20 549.70 C 222.50 547.00 221.00 544.80 218.70 543.00 C 218.90 538.10 220.70 533.60 223.60 529.60 C 223.40 531.40 223.60 532.50 224.00 532.70 C 225.80 533.40 226.90 534.90 226.90 536.90 C 227.10 540.00 227.10 543.20 227.10 546.50 C 226.90 558.10 239.80 561.90 249.00 563.00 C 258.20 564.60 267.50 560.50 272.70 552.50 C 275.80 547.80 275.60 542.00 271.80 535.10 C 271.60 534.40 270.90 534.20 270.20 534.00 L 254.80 532.40 C 253.90 532.40 253.00 532.60 252.30 533.30 C 251.90 533.70 251.00 534.00 250.30 533.50 C 249.60 533.30 249.20 532.60 249.20 531.90 C 248.80 530.60 249.00 529.00 249.90 527.90 C 251.00 527.20 252.40 526.80 253.50 527.00 C 258.00 527.00 262.40 527.00 266.70 527.00 C 269.80 527.30 273.40 525.50 277.60 522.20 Z" fill="#f88b79" fill-rule="nonzero" node-id="174" stroke="none" target-height="47.099976" target-width="62.90001" target-x="218.7" target-y="522.2"></path><path d="M 223.50 529.50 C 220.60 533.30 218.80 538.00 218.60 542.90 C 215.00 541.80 214.80 538.40 217.70 532.80 C 219.50 529.70 221.10 527.00 222.60 524.80 C 224.20 522.60 225.30 522.60 225.30 525.70 C 225.10 526.80 224.40 528.40 223.50 529.50 Z" fill="#a7343f" fill-rule="nonzero" node-id="176" stroke="none" target-height="20.300049" target-width="10.5" target-x="214.8" target-y="522.6"></path><path d="M 590.20 527.30 C 590.00 528.20 591.30 528.90 593.80 529.10 C 593.40 529.30 592.90 529.50 592.70 530.00 C 592.30 530.90 592.50 531.80 593.10 532.50 C 598.90 537.20 604.70 544.30 600.20 551.90 C 597.70 556.10 592.80 558.20 587.90 556.80 C 585.20 555.70 582.80 554.30 580.50 552.80 C 579.80 552.40 579.40 551.90 579.20 551.20 C 577.00 544.90 575.60 538.20 575.20 531.50 C 575.00 530.40 575.90 529.30 577.20 529.00 L 577.20 529.00 L 590.20 527.30 Z" fill="#ea372a" fill-rule="nonzero" node-id="178" stroke="none" target-height="30.900024" target-width="29.700012" target-x="575" target-y="527.3"></path><path d="M 814.90 528.00 C 825.40 562.00 820.00 593.20 799.30 621.80 C 796.80 625.20 791.50 627.80 788.40 630.70 C 771.20 646.80 752.40 654.80 730.30 661.50 C 729.20 661.70 728.50 662.60 728.30 663.50 C 728.10 663.90 727.40 664.40 727.00 664.40 C 726.60 664.40 726.10 664.00 725.90 663.50 C 719.40 653.40 710.00 645.60 699.10 641.20 C 680.60 634.10 664.00 636.50 649.50 648.60 C 646.60 647.00 643.00 648.20 638.60 652.00 C 634.60 655.40 630.80 658.90 626.80 662.30 C 626.10 662.70 625.50 662.70 624.80 662.10 C 624.10 661.50 624.10 660.50 624.80 659.90 C 625.50 659.00 625.70 657.90 625.70 656.80 C 625.70 651.70 626.40 646.50 627.00 641.40 C 627.40 638.90 627.40 636.50 627.00 634.00 C 625.40 627.10 624.50 627.10 624.30 634.20 C 623.90 642.50 623.60 651.40 623.20 661.20 C 623.00 663.90 622.10 666.30 620.30 668.10 C 610.50 681.10 600.20 693.60 589.00 705.60 C 588.60 706.00 588.10 706.90 588.10 707.60 C 587.90 713.00 585.20 715.60 580.10 715.60 C 579.70 714.50 578.10 714.70 575.60 716.50 C 574.50 717.40 573.10 718.10 571.60 718.50 C 568.00 719.40 564.20 719.20 560.90 717.60 C 564.70 708.00 566.90 697.90 567.80 687.70 C 567.80 687.50 568.20 685.00 568.90 680.60 C 569.30 677.50 569.30 674.10 568.50 671.00 C 568.30 669.90 567.40 669.20 566.30 669.40 L 566.10 669.40 C 565.00 669.60 564.30 670.30 564.30 671.90 C 564.50 677.30 564.50 682.40 564.50 687.80 C 564.10 690.50 563.40 692.90 562.50 695.40 C 562.30 696.10 562.10 696.70 561.40 697.20 L 559.20 698.80 C 562.60 692.10 564.60 684.50 564.60 676.90 C 564.60 664.20 563.50 651.70 560.80 639.40 C 560.80 639.20 560.80 638.70 561.20 638.70 C 561.20 638.70 561.20 638.70 561.40 638.70 L 562.10 638.70 C 562.50 638.70 563.00 638.90 563.20 639.60 L 568.10 658.80 C 568.50 660.10 569.20 660.60 570.60 659.90 C 579.30 655.90 587.60 651.20 595.60 645.80 C 600.10 642.70 605.00 639.80 609.70 637.10 C 614.40 634.40 618.90 631.30 622.70 627.70 C 623.40 627.00 623.80 625.90 623.80 625.00 C 623.40 620.10 623.40 615.20 623.60 610.30 C 623.60 610.10 623.80 609.90 623.80 609.60 C 624.00 609.40 624.20 609.40 624.50 609.40 C 624.80 609.40 624.90 609.60 625.20 609.80 L 625.20 609.80 L 627.40 623.20 C 627.60 624.10 628.50 624.80 629.40 624.50 C 629.60 624.50 629.60 624.50 629.80 624.30 C 658.60 611.80 687.90 606.40 718.90 614.50 C 727.20 616.70 735.20 620.30 742.80 624.60 C 749.10 628.20 755.80 630.20 762.90 631.10 C 765.40 631.50 767.60 632.20 769.80 633.10 C 770.50 633.30 771.10 633.80 771.60 634.20 C 773.20 636.20 775.40 636.40 778.30 634.90 C 784.60 631.50 787.70 627.50 792.60 623.30 C 794.60 621.50 796.40 619.50 797.70 617.00 C 799.50 613.60 800.80 610.50 802.20 607.20 C 802.40 606.30 803.10 605.90 803.80 605.20 C 808.00 602.50 810.70 597.60 811.80 590.70 C 812.00 589.60 811.60 588.50 810.90 587.80 C 804.60 580.90 802.20 571.50 804.00 562.30 C 804.00 561.60 804.40 561.00 805.10 560.50 C 807.60 558.70 809.30 556.30 810.50 553.60 C 812.70 545.30 813.60 536.80 813.20 528.40 C 812.20 527.70 813.10 527.70 814.90 528.00 Z" fill="#e37a7b" fill-rule="nonzero" node-id="180" stroke="none" target-height="191.70001" target-width="266.2" target-x="559.2" target-y="527.7"></path><path d="M 438.00 540.00 L 427.70 544.20 C 427.30 544.40 426.60 544.20 426.40 543.50 L 426.40 543.30 C 426.40 542.60 426.60 542.00 427.10 541.50 C 430.50 538.40 434.50 535.90 438.90 534.40 C 439.80 534.00 440.70 534.40 440.90 535.30 C 440.90 535.50 441.10 535.70 441.10 535.70 C 441.10 536.10 441.10 536.40 441.10 536.80 C 440.50 538.50 439.30 539.60 438.00 540.00 Z" fill="#c33935" fill-rule="nonzero" node-id="182" stroke="none" target-height="10.400024" target-width="14.700012" target-x="426.4" target-y="534"></path><path d="M 566.60 536.51 L 568.41 537.04 L 570.01 537.85 L 571.43 538.95 L 572.64 540.28 L 573.60 541.78 L 574.33 543.48 L 574.76 545.28 L 574.88 547.16 L 574.68 549.15 L 574.13 551.07 L 573.33 552.78 L 572.27 554.29 L 570.97 555.61 L 569.52 556.65 L 567.90 557.44 L 566.18 557.93 L 564.39 558.10 L 562.52 557.93 L 560.71 557.39 L 559.11 556.58 L 557.69 555.49 L 556.48 554.16 L 555.52 552.66 L 554.79 550.96 L 554.36 549.16 L 554.24 547.28 L 554.44 545.29 L 554.99 543.36 L 555.79 541.66 L 556.85 540.15 L 558.15 538.83 L 559.60 537.79 L 561.22 537.00 L 562.94 536.51 L 564.73 536.34 L 566.60 536.51 Z" fill="#fb381a" fill-rule="nonzero" group-id="4" node-id="186" stroke="none" target-height="21.754883" target-width="20.63733" target-x="554.2415" target-y="536.3414"></path><path d="M 411.00 549.40 C 415.20 552.10 418.80 551.40 422.60 548.30 C 425.10 546.30 425.30 546.50 423.50 549.20 C 421.90 551.40 419.50 552.80 416.80 553.20 C 415.90 553.40 415.00 553.20 414.30 552.80 C 408.00 548.30 400.20 546.50 392.60 547.70 C 379.00 548.80 365.60 551.50 352.60 555.50 C 349.20 556.40 345.70 556.80 342.30 556.40 C 332.20 555.10 325.50 554.40 322.60 554.40 C 319.90 554.20 317.20 553.10 315.00 551.50 C 314.30 551.10 314.10 550.40 314.10 549.70 C 314.10 549.00 314.30 548.60 314.80 548.10 C 315.20 547.70 315.90 547.70 316.40 547.70 C 321.30 547.90 324.00 551.50 328.70 552.20 C 334.30 552.90 339.90 553.10 345.50 552.90 C 351.10 552.20 356.40 551.30 361.80 549.80 C 374.50 546.40 387.50 544.90 400.70 544.70 C 403.20 544.70 405.80 544.90 408.30 545.10 C 409.00 545.10 409.40 545.80 409.40 546.40 L 409.40 546.40 C 409.40 547.10 409.40 547.70 409.60 548.40 C 410.10 548.50 410.30 549.20 411.00 549.40 Z" fill="#e54a3e" fill-rule="nonzero" node-id="189" stroke="none" target-height="12.099976" target-width="111.19998" target-x="314.1" target-y="544.7"></path><path d="M 192.90 548.10 C 193.80 562.40 198.90 573.80 207.90 582.10 C 212.60 586.10 217.50 589.90 222.60 593.30 C 227.70 596.70 232.90 600.20 238.00 603.60 L 238.00 603.80 L 237.80 603.80 L 215.70 592.40 C 210.80 587.90 206.10 583.50 201.40 578.80 C 192.70 569.70 189.80 559.50 192.90 548.10 Z" fill="#ce6e83" fill-rule="nonzero" node-id="191" stroke="none" target-height="55.700012" target-width="48.199997" target-x="189.8" target-y="548.1"></path><path d="M 744.80 586.00 L 741.20 584.90 C 739.40 584.20 738.30 582.40 739.00 580.70 C 739.00 580.50 739.20 580.30 739.40 579.80 L 741.20 576.70 C 742.10 575.40 743.90 574.70 745.40 575.40 L 749.40 577.20 C 751.20 577.90 751.90 579.90 751.20 581.70 C 751.00 581.90 751.00 582.40 750.80 582.60 L 748.60 585.10 C 747.40 586.00 746.10 586.50 744.80 586.00 Z" fill="#e37a7b" fill-rule="nonzero" node-id="193" stroke="none" target-height="11.799988" target-width="13.600037" target-x="738.3" target-y="574.7"></path><path d="M 792.30 581.21 L 793.52 583.24 L 794.29 584.82 L 794.70 586.20 L 794.57 586.66 L 794.10 586.60 L 792.99 585.67 L 791.84 584.35 L 790.46 582.43 L 789.24 580.40 L 788.47 578.82 L 788.06 577.44 L 788.19 576.98 L 788.66 577.05 L 789.77 577.97 L 790.92 579.30 L 792.30 581.21 Z" fill="#e2917e" fill-rule="nonzero" group-id="5" node-id="197" stroke="none" target-height="9.683655" target-width="6.6342773" target-x="788.0615" target-y="576.97864"></path><path d="M 764.40 583.40 L 769.50 585.60 C 772.00 586.70 773.10 589.40 772.00 591.90 L 770.40 595.90 C 769.50 598.40 766.60 599.50 764.10 598.60 C 763.90 598.40 763.40 598.40 763.20 598.20 L 760.50 596.40 C 759.40 595.70 758.50 594.60 758.30 593.30 L 757.40 588.60 C 757.00 585.90 758.50 583.50 761.20 583.00 C 762.40 582.90 763.50 582.90 764.40 583.40 Z" fill="#df615d" fill-rule="nonzero" node-id="200" stroke="none" target-height="16.599976" target-width="16.099976" target-x="757" target-y="582.9"></path><path d="M 479.80 692.20 C 473.30 693.30 466.80 694.70 460.60 696.20 C 454.30 698.00 447.90 699.30 441.60 700.20 C 427.10 702.20 412.30 704.70 397.80 704.70 C 376.40 704.90 352.00 704.30 324.50 702.20 C 303.90 701.10 283.80 697.70 264.00 691.90 C 262.40 687.40 260.00 683.40 256.60 679.80 C 254.60 677.60 252.60 675.10 251.00 672.40 C 249.40 662.80 249.70 653.20 251.40 643.60 C 254.10 635.30 257.20 627.10 261.20 619.20 C 266.80 607.60 274.20 602.20 286.70 601.60 C 289.80 601.40 292.70 601.20 295.60 600.90 C 350.30 600.50 405.10 597.80 459.80 592.90 C 471.20 591.80 479.00 592.20 483.70 593.80 C 495.30 597.80 503.40 606.30 507.60 619.30 C 510.30 627.80 509.80 636.90 506.30 645.00 C 500.30 662.50 491.20 678.30 479.80 692.20 Z" fill="#f6f7f9" fill-rule="nonzero" node-id="202" stroke="none" target-height="113.10004" target-width="260.9" target-x="249.4" target-y="591.8"></path><path d="M 189.10 598.30 C 192.20 599.90 194.50 602.30 196.00 605.20 C 196.20 605.90 196.70 606.30 197.30 606.50 C 197.50 606.70 197.70 606.90 198.00 607.20 L 198.90 610.60 C 198.90 611.30 199.60 611.90 200.20 611.90 C 200.40 611.90 200.90 611.70 201.10 611.70 C 210.00 607.90 216.10 611.50 219.60 622.60 C 220.70 624.80 219.60 627.50 217.40 628.60 C 217.20 628.80 217.00 628.80 216.50 628.80 C 214.50 629.70 212.90 631.00 211.80 632.80 C 211.40 633.50 210.70 633.70 210.00 633.50 C 203.30 632.60 199.90 622.30 198.60 617.00 C 197.70 613.60 196.80 613.60 195.50 616.80 C 194.80 618.80 193.00 620.20 191.00 620.20 C 190.30 620.20 189.40 620.60 189.20 621.30 C 188.80 622.20 188.80 623.30 189.20 624.20 C 189.40 624.60 189.90 624.90 190.30 624.90 C 190.50 624.90 190.50 624.90 190.70 624.70 C 191.60 624.00 192.90 624.00 193.80 624.70 C 197.60 626.70 199.40 629.60 198.50 633.40 C 197.80 637.40 195.60 641.00 192.20 643.20 C 191.80 643.40 191.50 643.90 191.80 644.50 C 191.80 644.70 192.00 644.70 192.00 644.90 C 192.90 645.80 194.20 646.20 195.60 645.80 C 195.40 652.70 197.60 657.20 202.30 658.80 C 198.30 659.70 198.50 661.00 203.40 662.80 C 204.50 663.20 205.40 663.90 206.30 664.60 C 208.80 666.80 211.90 668.20 215.00 669.10 C 225.70 672.00 236.40 674.20 247.60 675.80 C 248.30 675.80 248.70 676.20 248.70 676.90 L 248.70 676.90 C 248.70 677.60 248.90 678.20 249.10 678.90 C 249.50 679.60 249.80 679.60 250.00 678.70 L 250.90 672.40 C 252.50 675.10 254.30 677.50 256.50 679.80 C 259.60 683.40 262.30 687.40 263.90 691.90 C 269.30 698.60 275.30 704.40 282.20 709.50 C 296.30 720.00 312.60 726.90 330.00 729.60 C 354.10 733.60 378.90 732.30 400.40 732.70 C 407.10 732.70 413.80 732.70 420.50 732.30 C 431.70 731.60 442.20 731.60 453.30 729.40 C 456.70 728.70 458.90 729.20 459.60 731.20 C 430.60 734.10 401.70 735.90 372.90 736.30 C 372.20 736.30 371.60 736.50 370.90 737.00 C 366.40 740.60 362.60 744.80 359.30 749.50 C 358.20 750.80 356.60 751.50 354.80 751.50 C 348.50 752.20 342.10 752.40 335.80 752.20 C 334.00 748.00 330.20 744.60 325.70 743.50 C 320.60 741.50 315.00 743.70 312.70 748.90 C 312.50 749.30 312.70 750.00 313.10 750.20 C 313.30 750.40 313.50 750.40 313.80 750.20 C 319.60 748.90 325.40 748.90 331.20 749.50 C 331.90 749.50 332.30 750.20 332.30 750.80 L 332.30 751.00 C 332.30 751.20 331.90 751.40 331.40 751.70 L 288.10 751.90 C 287.40 751.90 286.80 751.70 286.30 751.20 C 273.30 737.30 259.00 722.60 252.30 706.10 C 249.40 698.30 247.80 690.20 247.60 682.00 C 247.60 681.30 247.20 680.70 246.50 680.40 C 228.40 675.90 211.20 673.70 196.50 661.20 C 189.40 655.40 184.20 647.30 181.80 638.60 C 178.20 625.40 180.40 611.70 189.10 598.30 Z" fill="#df615d" fill-rule="nonzero" node-id="204" stroke="none" target-height="154.10004" target-width="281.40002" target-x="178.2" target-y="598.3"></path><path d="M 648.90 649.10 C 644.00 652.50 639.10 656.00 634.40 659.40 C 629.50 662.80 625.00 666.80 621.20 671.50 C 612.30 682.70 604.00 694.50 596.80 706.80 C 596.40 707.70 596.60 707.90 597.50 707.90 C 600.40 707.50 603.30 708.10 605.50 709.90 C 606.20 710.30 607.10 710.10 607.50 709.50 C 607.50 709.50 607.50 709.30 607.70 709.30 C 608.40 707.50 609.00 705.70 609.90 703.90 C 611.00 702.10 612.10 700.50 613.50 699.00 C 615.10 697.20 616.00 695.20 616.00 693.00 C 616.00 692.80 616.00 692.60 616.20 692.60 C 616.40 692.40 616.40 692.40 616.60 692.20 C 617.30 692.00 617.70 691.30 617.70 690.40 C 617.50 685.50 618.80 680.60 621.30 676.30 C 626.20 669.20 632.70 663.30 640.10 658.70 C 641.00 658.30 641.90 658.00 642.80 658.00 C 645.90 658.20 648.80 658.40 652.00 658.90 C 654.00 659.30 656.00 659.80 658.00 660.50 C 659.80 661.20 661.80 661.40 663.80 660.90 C 666.50 660.50 668.00 661.60 668.50 664.00 C 668.70 664.90 669.40 665.30 670.30 665.30 C 670.50 665.30 670.70 665.10 671.00 665.10 C 672.60 664.00 674.40 662.60 675.70 661.30 C 680.60 657.10 687.10 655.00 693.30 655.90 C 696.70 656.60 704.50 659.00 716.50 663.00 C 719.90 664.30 722.80 665.90 725.90 667.70 C 726.60 668.10 727.20 668.10 727.90 667.90 C 728.80 667.70 729.70 667.70 730.60 667.90 C 742.20 685.10 751.80 703.40 759.60 722.60 C 762.50 730.00 765.20 739.10 768.10 747.20 C 769.00 748.30 768.50 749.40 766.50 750.60 C 759.40 750.80 750.20 751.00 738.80 751.70 C 728.30 752.40 716.90 752.40 704.40 751.90 L 694.10 751.90 C 688.50 751.90 682.90 750.60 677.80 750.60 C 666.40 750.60 654.80 750.40 643.20 749.90 C 634.00 749.70 622.40 749.70 608.80 750.10 C 592.70 750.50 576.90 750.30 561.20 749.70 C 560.30 749.70 559.60 748.80 559.60 747.90 C 559.60 747.70 559.60 747.50 559.80 747.00 L 579.70 715.70 C 584.80 715.70 587.50 713.00 587.70 707.70 C 587.70 707.00 587.90 706.10 588.60 705.70 C 599.80 693.90 610.00 681.30 619.90 668.20 C 621.70 666.20 622.60 663.70 622.80 661.30 C 623.20 651.50 623.70 642.50 623.90 634.30 C 624.10 627.20 625.00 627.20 626.60 634.10 C 627.00 636.60 627.00 639.00 626.60 641.50 C 625.70 646.60 625.30 651.80 625.30 656.90 C 625.30 658.00 625.10 659.10 624.40 660.00 C 623.70 660.70 623.70 661.60 624.40 662.20 C 625.10 662.90 625.70 663.10 626.40 662.40 C 630.20 659.00 634.20 655.50 638.20 652.10 C 642.40 648.60 646.20 647.50 648.90 649.10 Z" fill="#958a9c" fill-rule="nonzero" node-id="206" stroke="none" target-height="125.20001" target-width="209.40002" target-x="559.6" target-y="627.2"></path><path d="M 728.00 663.80 C 729.10 664.90 730.00 666.30 730.20 667.80 C 729.30 667.60 728.40 667.60 727.50 667.80 C 726.80 668.00 726.20 667.80 725.50 667.60 C 722.60 665.80 719.50 664.00 716.10 662.90 C 704.00 658.90 696.20 656.40 692.90 655.80 C 686.40 654.90 679.90 656.70 675.30 661.20 C 673.70 662.50 672.20 663.90 670.60 665.00 C 669.90 665.40 669.00 665.20 668.60 664.60 C 668.40 664.40 668.40 664.20 668.40 663.90 C 668.00 661.40 666.60 660.30 663.70 660.80 C 661.70 661.00 659.70 660.80 657.90 660.40 C 655.90 659.70 653.90 659.10 651.90 658.80 C 648.80 658.40 645.90 658.10 642.70 657.90 C 641.80 657.90 640.90 658.10 640.00 658.60 C 632.60 663.30 626.40 669.10 621.20 676.20 C 618.50 680.40 617.40 685.40 617.60 690.30 C 617.60 691.00 617.20 691.60 616.50 692.10 C 616.30 692.10 616.30 692.30 616.10 692.50 C 615.90 692.70 615.90 692.90 615.90 692.90 C 615.90 695.10 615.00 697.40 613.40 698.90 C 612.10 700.50 610.70 702.00 609.80 703.80 C 608.90 705.60 608.20 707.40 607.60 709.20 C 607.40 709.90 606.50 710.30 605.80 710.10 C 605.80 710.10 605.60 710.10 605.60 709.90 C 603.10 708.30 600.50 707.70 597.60 707.90 C 596.70 708.10 596.50 707.70 596.90 706.80 C 604.00 694.30 612.10 682.40 621.30 671.50 C 625.10 667.00 629.60 663.00 634.50 659.40 C 639.20 656.00 644.10 652.70 649.00 649.10 C 663.50 637.00 680.10 634.40 698.60 641.70 C 709.50 646.20 718.90 654.00 725.40 664.00 C 725.60 664.40 726.10 664.70 726.50 664.90 C 727.10 664.70 727.80 664.50 728.00 663.80 Z" fill="#baa4ab" fill-rule="nonzero" node-id="208" stroke="none" target-height="75.89996" target-width="133.70001" target-x="596.5" target-y="634.4"></path><path d="M 215.70 643.90 C 215.90 645.70 216.10 647.70 216.10 649.70 C 216.80 658.40 210.70 662.40 202.20 658.90 C 197.30 657.30 195.10 652.90 195.50 645.90 C 201.20 637.70 207.90 637.00 215.70 643.90 Z" fill="#cf4847" fill-rule="nonzero" node-id="210" stroke="none" target-height="25.400024" target-width="21.699997" target-x="195.1" target-y="637"></path><path d="M 251.70 643.90 C 249.90 653.30 249.70 663.10 251.30 672.70 L 250.40 679.00 C 250.40 679.90 250.00 679.90 249.50 679.20 C 249.10 678.50 249.10 677.90 249.10 677.20 C 249.10 676.50 248.70 675.90 248.00 675.90 L 248.00 675.90 C 237.10 674.30 226.10 672.10 215.40 669.20 C 212.30 668.30 209.10 667.00 206.70 664.70 C 205.80 663.80 204.90 663.40 203.80 662.90 C 198.90 661.10 198.70 659.80 202.70 658.90 C 211.20 662.50 217.20 658.50 216.60 649.70 C 216.40 647.70 216.40 645.70 216.20 643.90 C 224.00 645.50 231.80 645.50 239.70 644.30 C 241.70 644.10 243.70 643.90 246.00 644.10 C 247.20 644.10 249.40 644.10 251.70 643.90 Z" fill="#e37a7b" fill-rule="nonzero" node-id="212" stroke="none" target-height="36" target-width="53" target-x="198.7" target-y="643.9"></path><path d="M 560.70 717.90 L 538.50 748.00 C 535.40 748.40 532.00 748.20 528.90 747.30 C 528.20 747.10 527.60 746.40 527.60 745.70 L 526.50 741.00 C 526.30 739.90 525.20 739.00 524.00 739.00 L 512.60 739.20 C 513.00 738.80 513.50 738.30 513.90 737.90 C 514.60 737.50 514.30 737.00 513.70 736.60 C 513.30 736.40 512.60 736.40 511.90 736.40 C 506.80 737.50 503.20 740.40 498.30 741.50 C 494.90 742.20 491.60 743.10 488.20 744.20 C 487.50 744.40 486.90 744.40 486.00 744.20 C 479.50 741.50 473.50 737.70 468.40 733.00 C 482.70 729.60 496.80 725.40 510.60 720.50 C 517.50 718.00 524.70 715.60 531.80 712.70 C 534.70 711.60 537.80 710.90 541.00 710.50 C 545.50 709.80 548.60 708.70 550.20 707.10 C 552.70 704.40 555.60 701.70 558.50 699.10 L 560.70 697.50 C 561.40 697.10 561.60 696.40 561.80 695.70 C 562.70 693.20 563.40 690.60 563.80 688.10 C 563.80 682.70 563.80 677.60 563.60 672.20 C 563.60 670.60 564.00 670.00 565.40 669.70 C 566.50 669.50 567.40 670.10 567.90 671.00 L 567.90 671.20 C 568.80 674.30 568.80 677.70 568.30 680.80 C 567.60 685.30 567.20 687.70 567.20 687.90 C 566.70 698.40 564.20 708.50 560.70 717.90 Z" fill="#df615d" fill-rule="nonzero" node-id="214" stroke="none" target-height="78.900024" target-width="100.399994" target-x="468.4" target-y="669.5"></path><path d="M 805.46 681.50 L 805.85 682.59 L 805.92 683.79 L 805.65 685.14 L 804.74 687.10 L 803.13 689.19 L 801.06 691.06 L 798.42 692.79 L 795.55 694.09 L 792.87 694.83 L 790.24 695.07 L 788.10 694.79 L 786.81 694.30 L 785.84 693.59 L 785.13 692.68 L 784.74 691.58 L 784.66 690.39 L 784.93 689.04 L 785.85 687.08 L 787.46 684.99 L 789.52 683.12 L 792.16 681.39 L 795.03 680.09 L 797.72 679.35 L 800.34 679.11 L 802.49 679.39 L 803.77 679.88 L 804.74 680.58 L 805.46 681.50 Z" fill="#cbda66" fill-rule="nonzero" group-id="6" node-id="218" stroke="none" target-height="15.957275" target-width="21.256836" target-x="784.66425" target-y="679.11084"></path><path d="M 865.36 680.50 L 865.39 681.05 L 865.08 681.74 L 864.24 682.69 L 862.63 683.89 L 860.29 685.12 L 857.80 686.01 L 855.82 686.38 L 854.56 686.36 L 853.84 686.12 L 853.46 685.72 L 853.42 685.17 L 853.73 684.47 L 854.57 683.53 L 856.18 682.33 L 858.52 681.09 L 861.01 680.21 L 862.99 679.84 L 864.25 679.85 L 864.98 680.10 L 865.36 680.50 Z" fill="#e0e9a6" fill-rule="nonzero" group-id="7" node-id="223" stroke="none" target-height="6.543457" target-width="11.971924" target-x="853.4214" target-y="679.8369"></path><path d="M 264.00 692.20 C 283.70 697.80 304.00 701.10 324.50 702.50 C 352.00 704.30 376.30 705.20 397.80 705.00 C 412.30 704.80 427.10 702.30 441.60 700.50 C 448.10 699.60 454.30 698.30 460.60 696.50 C 466.90 694.90 473.10 693.60 479.80 692.50 C 474.20 702.10 467.50 711.00 459.90 719.30 C 459.00 723.50 459.50 728.00 461.20 732.00 C 460.80 732.20 460.30 732.20 459.90 732.00 C 459.20 730.00 457.00 729.50 453.60 730.20 C 442.40 732.70 431.90 732.40 420.80 733.10 C 414.10 733.50 407.40 733.50 400.70 733.50 C 379.30 733.10 354.50 734.60 330.30 730.40 C 313.10 727.50 296.60 720.60 282.50 710.30 C 275.40 704.90 269.10 698.90 264.00 692.20 Z" fill="#fed6c6" fill-rule="nonzero" node-id="226" stroke="none" target-height="42.399963" target-width="215.79999" target-x="264" target-y="692.2"></path><path d="M 459.70 718.80 C 461.50 726.20 464.40 731.10 468.60 733.10 C 473.70 737.80 479.80 741.60 486.20 744.30 C 486.90 744.50 487.50 744.50 488.40 744.30 C 491.80 743.20 495.10 742.50 498.50 741.60 C 503.20 740.50 507.00 737.60 512.10 736.50 C 512.50 736.30 513.20 736.50 513.90 736.70 C 514.60 736.90 514.80 737.40 514.10 738.00 C 513.70 738.40 513.20 738.90 512.80 739.30 C 509.40 741.30 507.20 744.40 506.50 748.00 L 483.90 747.60 C 481.40 745.80 480.10 745.10 479.40 745.10 L 461.30 731.20 C 459.50 727.50 459.00 723.00 459.70 718.80 Z" fill="#c33935" fill-rule="nonzero" node-id="228" stroke="none" target-height="29.200012" target-width="55.799988" target-x="459" target-y="718.8"></path><path d="M 538.50 748.20 L 506.10 748.20 C 506.80 744.60 509.20 741.30 512.40 739.50 L 523.80 739.30 C 524.90 739.30 526.00 740.20 526.30 741.30 L 527.40 746.00 C 527.60 746.70 528.10 747.30 528.70 747.60 C 532.10 748.50 535.40 748.70 538.50 748.20 Z" fill="#ffa490" fill-rule="nonzero" node-id="230" stroke="none" target-height="9.400024" target-width="32.399994" target-x="506.1" target-y="739.3"></path><path d="M 336.10 752.70 L 331.60 752.50 C 332.00 752.30 332.50 752.10 332.50 751.80 C 332.70 751.10 332.50 750.50 331.80 750.20 L 331.60 750.20 C 325.80 749.30 320.00 749.50 314.20 750.90 C 313.50 751.10 313.10 750.70 312.90 750.00 C 312.90 749.80 312.90 749.60 312.90 749.30 C 315.10 744.40 320.70 741.90 325.90 743.90 C 330.50 745.10 334.30 748.20 336.10 752.70 Z" fill="#ffa490" fill-rule="nonzero" node-id="232" stroke="none" target-height="10.799988" target-width="23.200012" target-x="312.9" target-y="741.9"></path><path d="M 479.10 745.30 C 479.50 745.10 481.10 746.00 483.60 747.80 C 481.80 747.40 480.00 747.80 478.70 748.90 C 478.30 749.30 477.60 749.60 476.70 749.60 C 452.60 749.40 428.70 749.60 404.50 750.00 C 393.80 750.20 377.90 749.10 364.70 750.20 C 363.80 750.20 363.60 750.00 363.80 749.10 L 364.00 748.40 C 364.20 747.50 364.90 746.80 365.80 746.60 C 371.60 745.70 378.30 746.80 383.40 746.60 C 408.60 745.90 434.10 745.90 459.60 746.60 C 463.00 746.60 466.10 746.60 469.40 746.20 C 472.40 746.00 475.80 745.80 479.10 745.30 Z" fill="#f0d1cd" fill-rule="nonzero" node-id="234" stroke="none" target-height="5.1000366" target-width="120" target-x="363.6" target-y="745.1"></path><path d="M 767.80 747.10 L 860.30 747.10 C 860.70 747.10 861.20 747.50 861.20 748.00 L 861.20 748.70 C 861.20 749.10 861.00 749.60 860.50 749.60 L 860.50 749.60 L 766.20 750.50 C 768.00 749.40 768.70 748.20 767.80 747.10 Z" fill="#fbb2b1" fill-rule="nonzero" node-id="236" stroke="none" target-height="3.4000244" target-width="95" target-x="766.2" target-y="747.1"></path><path d="M 232.90 747.80 L 277.60 747.80 C 277.80 747.80 278.00 748.00 278.00 748.20 C 278.00 748.20 278.00 748.20 278.00 748.40 L 278.00 749.70 C 278.00 750.10 277.80 750.10 277.60 750.10 L 231.10 750.50 C 232.70 750.50 233.10 749.60 232.90 747.80 Z" fill="#fbb2b1" fill-rule="nonzero" node-id="238" stroke="none" target-height="2.7000122" target-width="46.899994" target-x="231.1" target-y="747.8"></path></svg>