<svg xml:space="preserve" style="enable-background:new 0 0 1024 1024;" viewBox="0 0 1024 1024" y="0px" x="0px" xmlns:xlink="http://www.w3.org/1999/xlink" xmlns="http://www.w3.org/2000/svg" id="图层_1" version="1.1">
<style type="text/css">
	.st0{fill:#C46B7E;}
	.st1{fill:#F5B7A5;}
	.st2{fill:#D87777;}
	.st3{fill:#E73D22;}
	.st4{fill:#F9D3C4;}
	.st5{fill:#EC7759;}
	.st6{fill:#F29F8C;}
	.st7{fill:#E66B63;}
	.st8{fill:#D25F5B;}
	.st9{fill:#F29C49;}
	.st10{fill:#D74A3E;}
	.st11{fill:#F5AB5C;}
	.st12{fill:#DB382C;}
	.st13{fill:#2B0707;}
	.st14{fill:#F5F6F8;}
	.st15{fill:#F3ADAC;}
	.st16{fill:#B83934;}
	.st17{fill:#F29F66;}
	.st18{fill:#F9D5BC;}
	.st19{fill:#EEC0A5;}
	.st20{fill:#71151A;}
	.st21{fill:#EA5F3A;}
	.st22{fill:#EE8363;}
	.st23{fill:#ED7C46;}
	.st24{fill:#EF8954;}
	.st25{fill:#F3A93E;}
	.st26{fill:#928799;}
	.st27{fill:#A5989F;}
	.st28{fill:#F2A69A;}
	.st29{fill:#EDCECA;}
</style>
<title>1</title>
<g>
	<path d="M417.9,314.9c-0.8,2.7-2.4,5.1-4,7.3c-2.7,2.4-5.9,4.6-9.4,6.2c-3,0.5-5.4,2.7-6.7,5.4
		c-1.1,1.9-3.5,2.4-5.1,1.3c-0.8-0.5-1.3-1.1-1.6-1.9c-2.1-5.4-2.1-18.8-11-17.7c-14,1.9-27.9,3.8-41.6,5.4
		c-2.1,0.3-4.3,1.1-6.2,2.1c-0.5,0.3-0.8,0.5-0.5,1.1c0,0.5-0.3,0.8-0.5,0.8h-0.3l-10.5,0.3l-22.8,4.6c2.1-1.1,4.6-2.1,6.7-3.5
		c2.1-1.3,3.8-3.2,5.1-5.4c6.2-9.9,13.7-19.1,22.3-26.9c5.4-4.6,12.1-7,19.3-7c9.7-0.5,19.1-3.8,27.1-9.4c6.2-4,12.4-7.8,18.8-11.3
		c1.9-1.1,4-0.3,4.8,1.6l0,0C408.8,283,414.4,298.5,417.9,314.9z" class="st0"></path>
	<path d="M514.6,285.9c-1.9,8.1-13.2,10.2-20.1,11.5c-2.4,0-4.3,2.1-4.3,4.6c0,0.5,0.3,1.1,0.3,1.6
		c0.5,1.6,0.3,3.5-0.8,4.8c-2.1,3-4.8,5.6-7.8,7.8c-0.8,0.5-1.6,0.8-2.4,0.8c-13.7,0.3-27.1-3.8-38.4-11.5c6.2-3,12.6-5.4,19.1-7
		c7.8-1.9,14.2-3.8,19.6-5.4c5.9-1.9,13.2-3.8,21.8-5.9C505.7,285.9,510,285.4,514.6,285.9z" class="st1"></path>
	<path d="M520.5,344.5c0.5,0.3,0.3,0.5,0,1.3c-0.8,0-1.1-0.8-1.1-1.9c0-0.5,0-0.8-0.5-1.1c-0.5-0.3-1.3-0.3-1.6,0.3
		c-0.3,0.3-0.5,0.5-0.5,1.1c0,0.8-0.3,1.9-0.8,2.7c-0.3,0.8-1.1,1.3-1.9,1.1l0,0c-2.4-0.5-4.8-1.3-7-2.1c-5.4-1.9-12.4-1.1-18-1.6
		c-0.8-0.3-1.9,0-2.7,0.5c-2.1,1.3-4.8,1.9-7.3,1.9c-1.1,0-1.9,0.3-2.7,0.8c-10.2,7.3-19.9,8.9-28.7,5.4c-3.5-1.3-7.3-2.4-11-2.7
		c-4-0.3-7.8-1.1-11.5-1.6c-6.2-0.8-12.6,0.3-18,3.5c-1.1,0.5-2.4,0.8-3.5,0.5c-4.3-1.1-8.1-3.8-10.2-7.8c-1.1-1.6-0.8-3.5,0.5-5.1
		l10.5-11c3.5-1.3,6.7-3.5,9.4-5.9c1.9-2.1,3.2-4.8,4-7.5l23.1-9.4c11.3,7.8,24.7,11.8,38.7,11.5c0.8,0,1.6-0.3,2.4-0.8
		c3-2.1,5.6-4.8,7.8-7.8c1.1-1.3,1.3-3.2,0.8-4.8c-1.1-2.1,0-4.8,2.4-5.9c0.5-0.3,1.1-0.3,1.6-0.3c7-1.3,18.3-3.5,20.1-11.5
		c3.5-1.3,5.4,0,5.6,4C520.8,298.8,520.8,316.8,520.5,344.5z" class="st2"></path>
	<path d="M404.5,328.4L394,339.6c-1.3,1.3-1.3,3.5-0.5,5.1c2.1,3.8,5.9,6.4,10.2,7.5c1.1,0.3,2.4,0,3.5-0.5
		c5.4-3.2,11.8-4.6,18-3.5c3.8,0.8,7.8,1.3,11.5,1.6c3.8,0.3,7.5,1.3,11,2.7c8.9,3.5,18.5,1.9,28.7-5.4c0.8-0.5,1.6-0.8,2.7-0.8
		c2.7,0,5.1-0.5,7.3-1.9c0.8-0.5,1.9-0.8,2.7-0.5c5.6,0.5,12.9-0.3,18,1.6c2.4,0.8,4.6,1.6,7,2.1c0.8,0.3,1.6-0.3,1.9-1.1l0,0
		c0.3-0.8,0.5-1.9,0.8-2.7c0-0.5,0.3-0.8,0.5-1.1c0.5-0.5,1.1-0.5,1.6-0.3c0.3,0.3,0.5,0.5,0.5,1.1c0,1.1,0.3,1.9,1.1,1.9l0.3,14
		c5.6,16.7,12.9,32.8,21.8,48.1c2.7,4.6,3.5,7.5,0.8,12.1c-4.3,6.7-9.4,13.2-15.3,18.5c-2.7,2.7-2.4,4,1.3,4.3
		c8.3,0.8,17.5,1.9,27.7,3.5c0.8,0,1.1,0.3,1.3,0.8c0,0.5-0.3,1.3-0.5,1.9l-8.6,3.5c-4.3,1.3-4.6,3.8-1.1,7.3
		c1.6,1.6,3.8,2.7,5.9,3.2c0.8,0.3,1.6,0.5,2.1,1.3c1.3,1.6,2.7,3,4,4.6c0.5,0.5,1.1,1.1,1.6,1.6c0.8,0.8,1.3,1.9,1.1,3
		c0,0.8,0.3,1.6,0.5,2.4c3.8,6.2,7.3,12.9,9.9,19.6c3.2,7.3,7.5,11.5,11.3,18c3.8,6.4,4,12.1,0.8,17.2c-1.6,2.1-3.5,4-5.9,5.6
		c-2.1,1.3-4.3,3-6.4,4.6c-1.6,1.6-1.3,2.4,0.8,2.7c1.9,0.3,3.5,1.1,4.8,2.1c0.8,0.5,0.8,1.6,0.3,2.4c-0.5,0.8-1.1,1.6-1.1,2.7
		c0,0.8,0.3,1.9,0.8,2.4c3.8,4,8.1,7.3,12.9,9.7c1.6,0.8,3.8,0.8,5.1-0.5c3-2.4,5.4-5.4,7-8.6c0.3-0.3,0.3-0.8,0.3-1.1
		c0-0.5-0.3-1.1-1.1-1.3c-1.1-0.3-1.3-0.8-0.8-1.6c0.3-0.5,0.8-0.8,1.3-1.1c5.1-0.8,10.2-0.5,15,0.3c8.1,2.4,11,11.8,8.3,28.2
		c-0.5,4.3-5.4,8.1-14,12.1c-0.5,0.3-1.1,1.1-0.5,1.6c0,0,0,0.3,0.3,0.3l0.5,0.8c0.8,1.1,2.4,1.3,3.5,0.5c6.2-3.8,12.1-7.8,19.6-4.6
		c2.1,0.8,3.5,2.7,3.2,5.1c0,4,0.5,8.1,1.6,12.1c0,0.5,0.5,1.1,1.3,1.1h0.3c11.3-2.7,20.1,1.3,30.9,3c0.8,0,1.3,0.8,1.3,1.6
		c0.3,10.5-7.8,22.3-15.6,28.2c-0.8,0.5-1.1,1.3-0.8,2.1c0.3,0.3,0.3,0.5,0.5,0.5l5.1,4.8c0.8,1.1,2.4,1.1,3.5,0.3
		c13.2-8.1,16.1-4.8,19.3,9.1c1.3,5.9-2.4,11.5-5.4,16.4c-0.8,1.6-0.5,3.8,0.8,5.1c3,2.7,6.2,5.9,9.4,9.1c3.5,3,7.5,4.8,11.5,6.2
		h0.3l0.3-0.8c0.3-0.3,0-0.5-0.3-0.8c0,0,0,0-0.3,0c-5.9-2.7-11-6.7-15-11.5c-1.1-1.1-1.1-2.7,0-3.8l0,0
		c6.2-7.5,15.6-11.3,25.2-10.2c2.7,0.3,4.6,2.4,4.6,4.8c0,7.8-2.4,15.3-7,21.5c-0.5,0.8-0.5,1.1,0.5,0.8l10.7-2.1
		c0.3,4.8-2.1,7.8-7.8,8.6c-17.5,2.1-28.5-6.4-43-14.8c-1.1-0.5-1.6-1.9-1.1-3c2.1-5.1,0-10.7-4.6-13.4c-0.8-0.5-1.3-1.1-1.6-1.9
		c-3.5-6.4-10.5-11.8-13.7-15.8c-4-5.1-8.3-9.9-12.4-15c-3.5-4.3-7.5-8.3-11.8-12.1c-4.3-3.5-8.6-7.5-12.6-11.3
		c-1.1-1.6-1.9-3.5-2.1-5.4c-0.3-0.8-0.5-1.6-1.3-2.1c-3.2-2.7-5.9-5.6-8.1-9.1c-0.5-0.8-1.9-1.3-2.7-0.5c-0.5,0.3-0.8,0.5-0.8,1.1
		c-2.4,8.3-15.8,17.2-24.4,17.2c-7.5,0-14.5-4.8-20.1-9.9c-20.7-19.6,2.7-36.3,22.6-32.5c5.6,1.1,6.4-0.3,1.9-4
		c-1.9-1.6-3.8-3-5.9-4.3c-12.1-8.3-24.2-16.1-36.5-23.9c-3.8-2.1-5.6-6.7-9.4-9.1c-7.5-5.1-15.3-9.9-23.6-14
		c-10.5-5.1-20.4-11.3-29.8-17.7c-0.8-0.5-1.6-0.8-2.4-0.5l-21.5,5.1c-9.7,2.7-18.5,7.3-26.1,13.7c-15.8,3.8-30.9,9.7-45.1,17.5
		c-2.4,1.1-4.8,1.9-7.3,1.9c-3.2,0.3-5.1-0.3-5.6-1.6c-0.5-1.3,0-1.6,1.1-1.6c4.6,0.3,9.1-0.8,12.9-3.2c2.1-1.3,4.6-2.7,7.3-3.2
		c2.7-0.8,5.1-1.9,7.5-3.2c3.5-1.9,7-3.5,10.7-4.8c5.4-1.6,10.5-3.8,15.3-6.4c0.8-0.5,1.6-1.3,1.9-2.1c1.9-4.6,3.2-9.4,3.5-14.2
		c-0.3-4-1.3-7.8-3.2-11.3c-0.8-1.6-0.5-3,0.8-3.8c0.8-0.5,1.6-0.5,2.4,0c1.6,1.3,3.8,1.6,5.6,0.5c2.7-1.6,3.5-4.8,1.9-7.5
		c-0.3-0.3-0.3-0.5-0.5-0.8c-4.3-5.1-6.2-11.5-5.1-18.3c1.1-5.9,0.8-11.8-0.5-17.7c-2.1-9.7-4.3-19.3-6.7-29
		c-1.9-8.9-5.4-17.2-10.2-24.7c-3.8-5.4-7.3-11.3-10.2-17.2c-1.6-3-3.8-5.4-6.4-7.3c-0.5-0.5-1.1-1.3-1.1-2.1
		c-0.5-4.3-1.9-8.1-5.9-10.2c-3.5-1.9-7.5-2.7-11.5-2.4c-0.8,0-1.6-0.3-2.1-1.1c-1.6-1.9-2.7-4-3.5-6.2c-0.3-0.8-0.8-1.6-1.6-1.9
		c-5.9-3.8-12.9-6.2-19.9-6.7l-29.3-0.8l10.5-0.3c0.5,0,0.8-0.3,0.8-0.8v-0.3c0-0.5,0.3-0.8,0.5-1.1c1.9-1.1,4-1.9,6.2-2.1
		c13.7-1.6,27.7-3.5,41.6-5.4c8.9-1.3,8.9,12.1,11,17.7c0.8,1.9,3,3,5.1,2.1c0.8-0.3,1.3-0.8,1.9-1.6
		C398.8,330.8,401.5,328.9,404.5,328.4z M430.5,352.5c-0.8-0.5-1.9-0.8-3-0.8l-13.2,1.6c-2.1,0.3-3.8,2.4-3.5,4.6
		c0,0.8,0.5,1.6,1.1,2.4l15.3,16.1c1.3,1.6,3.8,1.6,5.6,0.3l10.7-8.6c1.9-1.3,2.1-4,0.5-5.6c-0.3-0.3-0.5-0.5-0.8-0.8L430.5,352.5z
		 M462.5,374.8c-7-5.6-16.7-1.6-22.8,3.2c-9.1,7.3-5.4,15.8,0.3,23.4c4.6,6.2,9.9,7.5,16.9,9.4c4.3,1.3,8.6-0.8,10.5-4.8
		c5.4-9.1,5.4-18,0.3-26.3C465.7,378,464.1,376.2,462.5,374.8L462.5,374.8z M477.3,426.9c3.5,0.3,7-0.3,10.2-1.3
		c0.8-0.3,1.3-0.8,1.6-1.6l2.4-7.3c0.3-0.8,1.1-1.6,1.9-1.9l5.6-2.1c1.6-0.3,2.7-1.9,2.4-3.8c0-0.3-0.3-0.8-0.5-1.1
		c-1.1-2.4-2.7-4.6-4.6-6.2c-1.6-1.6-4.3-2.1-6.2-1.1c-5.4,2.4-14.8,6.2-18.5,11c-1.3,1.6-2.7,3.5-4,5.1c-0.8,1.1-2.1,1.6-3.8,1.9
		c-2.4,0-5.1-0.5-7.3-1.6c-1.6-0.8-3.5,0-4,1.6l0,0c-3.2,8.1,0.5,15.8,6.4,22.8c4.3,5.1,10.2,2.7,13.7-1.3c1.9-3,2.4-6.7,1.6-9.9
		C473.8,427.7,474.9,426.7,477.3,426.9L477.3,426.9z M508.4,462.6c0-1.1-1.1-1.6-1.9-1.6c0,0,0,0-0.3,0c-1.9,0.3-3.5,1.3-4.3,3
		c-0.5,0.8-0.5,1.6-0.3,2.4c1.3,3.8,3.5,7.3,5.9,10.5c0.5,0.8,1.1,0.8,1.3-0.3C509.5,472,509.5,467.2,508.4,462.6z M514.6,479.8
		c-0.5,1.1-1.6,1.9-2.7,2.1c-0.8,0.3-1.3,1.1-1.1,1.9c0,0.3,0.3,0.5,0.3,0.5c4.6,7,8.3,14,11.8,21.5c1.3,3,3.8,5.1,7,5.9
		c2.7,0.5,5.4-0.3,7-2.1c5.4-5.1,8.1-12.4,7.3-19.9c-0.3-2.7-1.3-5.4-3.2-7.5C534.2,473.4,522.9,467.5,514.6,479.8L514.6,479.8z" class="st3"></path>
	<path d="M319.9,325.4l29.3,0.8c0,2.4-1.1,3.8-3,4c-3.5-0.5-7.3-0.3-10.7,0.5c-3.5,0.8-7,1.6-10.5,2.1
		c-15.3,1.3-33.6,1.6-44.9,13.7c-3.2,3.2-7.3,5.6-11.3,7c-4.3,1.3-8.6,1.9-12.9,1.6c-7.8-0.3-15.8-0.5-23.6-0.8
		c-1.1-1.9-1.1-4.3,0-6.2c0.3-0.5-0.3-1.1-2.1-1.1c1.3-0.5,3-0.5,4.6-0.5c12.9,2.4,26.3,2.4,39.2,0c1.6-0.5,3-1.6,4-2.7
		c1.1-1.1,2.1-2.4,3-3.8c3.5-5.6,9.4-9.1,15.8-9.9L319.9,325.4z" class="st4"></path>
	<path d="M349.2,326.2c7,0.5,14,2.7,19.9,6.7c0.8,0.5,1.3,1.1,1.6,1.9c0.8,2.1,2.1,4.3,3.5,6.2c0.5,0.5,1.3,1.1,2.1,1.1
		c4,0,8.1,0.8,11.5,2.4c4,1.9,5.4,5.9,5.9,10.2c0,0.8,0.5,1.6,1.1,2.1c2.7,1.9,4.8,4.3,6.4,7.3c3,5.9,6.4,11.8,10.2,17.2
		c4.8,7.5,8.3,16.1,10.2,24.7c2.1,9.7,4.3,19.3,6.7,29c1.3,5.9,1.6,11.8,0.5,17.7c-1.1,6.4,0.8,13.2,5.1,18.3
		c1.9,2.4,1.6,5.9-0.8,7.8c-0.3,0.3-0.5,0.3-0.8,0.5c-1.9,0.8-4,0.8-5.6-0.5c-0.8-0.5-1.6-0.5-2.4,0c-1.3,0.8-1.6,1.9-0.8,3.8
		c1.9,3.5,3,7.5,3.2,11.3c-0.5,4.8-1.6,9.7-3.5,14.2c-0.3,0.8-1.1,1.6-1.9,2.1c-4.8,2.7-9.9,4.8-15.3,6.4c-3.8,1.1-7.3,2.7-10.7,4.8
		c-2.4,1.3-4.8,2.4-7.5,3.2c-2.4,0.8-4.8,1.9-7.3,3.2c-3.8,2.4-8.3,3.5-12.9,3.2c-1.1,0-1.6,0.5-1.1,1.6c0.5,1.1,2.4,1.9,5.6,1.6
		c-1.6,0.5-3.2,0.8-4.8,0.3c-0.8-0.3-1.6-0.8-1.9-1.9l-1.6-4.8c-0.5-1.9-2.4-3.2-4.3-3.2h-13.2c7.8,0.3,13.7-1.6,17.2-4.8
		c4.6-4.3,8.6-9.1,12.1-14.2c0.5-0.8,0.5-2.1-0.3-2.7c-1.6-1.3-1.3-3,0.5-4.8c5.4-3.5,3.8-18.5,2.4-23.9c0-0.3-0.3-0.5-0.5-0.8
		c-1.3-1.1-2.1-0.5-2.7,1.1c-2.4,6.7-5.6,14-2.7,21.5c0.3,2.4,0,4.6-1.1,7l-1.6-11c-0.3-0.8-0.3-1.9,0-2.7l0.8-3.5
		c0.3-0.8-0.3-1.6-1.1-1.6c-0.3,0-0.5,0-0.8,0c-11.8,6.2-22.6,9.1-32.2,19.1c1.3-1.9,3-3.8,4.8-5.4c1.9-1.3,4-2.7,5.9-3.8
		c2.1-1.1,4-3,5.6-4.8c0.5-0.8,0.8-1.9,0.5-2.7c-0.5-3-1.6-5.6-3-8.1c1.9-7,2.4-14.5,2.1-21.8c2.1-7.8,1.1-14-3.5-18.3
		c-0.3-0.3-1.3-1.6-3.2-3.5c-1.1-1.3-3-2.1-4.6-2.4c-1.1-0.3-1.1-0.5-0.3-1.1c3.2-2.1,4.8-6.2,3.8-10.2c-0.5-1.9-1.6-3.5-2.7-5.1
		c-1.1-1.6-2.4-3-4-3.8c-3.2-1.9-6.7-3.5-10.2-5.4c-1.3-0.5-1.3-0.8,0-0.3c0.3,0,0.8,0,1.1-0.3c0.8-0.5,0.8-1.1,0-1.3
		c-1.6-0.8-3.2-1.3-5.1-1.9c-0.3,0-0.3-0.3-0.3-0.5l0,0l0.3-0.3l0,0c4,0.8,7.8,2.1,11.5,4c0.3,0.3,0.5,0,0.5,0l0,0l0,0
		c0-0.3,0-0.3,0-0.5l0,0c-1.9-0.8-3.5-2.1-4.8-3.5c-0.5-0.5-1.3-1.1-2.4-1.1l-12.9-0.5c-4.3-0.3-8.6-1.1-12.6-2.1
		c-6.7-2.1-14-3-20.9-2.7c-1.3,0-2.4-0.3-3.5-1.1c-4.3-3-9.1-4.8-14.2-5.9c-0.8-0.3-1.6-0.5-2.4-1.1c-2.4-2.1-5.9-3-8.9-2.4l0,0
		c0.3-0.3,0.3-0.3,0.3-0.5c0.3-0.8,0-1.3-0.8-1.6c-0.3,0-0.3,0-0.5,0c-2.7,0.3-5.1-0.3-7.5-1.6c-1.3-0.8-2.1-2.7-1.9-4.3
		c0.5-4.6,0.8-9.4,0.8-14c0-1.1-0.3-2.1-0.8-3c-0.3-1.1-0.5-2.1-0.3-3.2c0.3-0.8-0.3-1.3-1.1-1.6l0,0c-1.3-0.3-2.4-0.3-3.8,0
		c-0.8,0.3-1.6,0-2.4-0.3l-2.7-1.6c7.8,0.5,15.6,0.8,23.6,1.1c4.3,0.3,8.9-0.3,12.9-1.6c4.3-1.6,8.1-4,11.3-7
		c0.3,3.2,2.7,5.1,7.3,5.1c0.8,0,1.6-0.3,2.1-1.1c5.6-7.5,13.4-11,23.9-10.2c0.5,0,0.8,0.3,0.8,1.1c-0.8,3.8-1.6,7.8-2.1,11.8
		c0,3.2-2.7,5.6-5.6,5.6l0,0c-2.7,0.3-5.1,0.8-7.5,1.9c-0.5,0.3-0.8,0.5-0.5,1.1v0.8c0,0.5,0.5,0.8,0.8,0.8l0,0
		c3.8-0.5,7.8-1.1,11.8-1.3c3.8-0.3,7.5-1.1,11-2.1c7.3-2.1,14.8-2.7,22-1.6c1.3,0.3,2.7,0,3.8-1.1c5.4-3.8,11.3-5.9,17.7-6.7
		c0.8,0,1.3-0.8,1.3-1.6V348c0-0.3-0.3-0.5-0.5-0.5l-11.3,0.5c-0.8,0.3-1.6-0.5-1.9-1.3l0,0c-1.6-6.7-0.3-11.5-7.3-16.4
		C348.1,330.2,349.2,328.6,349.2,326.2z M278.5,378.9c1.6,1.1,4.6,0,6.4-2.4s2.1-5.6,0.5-7c-1.6-1.3-4.6,0-6.4,2.4
		C277.2,374.6,276.9,377.5,278.5,378.9z M333,382.1c0-2.7-5.6-4.6-12.1-4.3c-6.7,0.3-11.8,2.7-11.8,5.4c0,2.7,5.6,4.6,12.1,4.3
		C327.9,387.2,333.3,384.8,333,382.1L333,382.1z M360.4,391.2l19.6-0.5c0.8,0,1.3-0.8,1.3-1.3v-0.5c-0.3-5.6-5.1-9.7-10.7-9.4l0,0
		H369c-5.6,0-10.2,4.3-10.2,9.9v0.5C359.1,390.4,359.6,391.2,360.4,391.2L360.4,391.2L360.4,391.2z" class="st5"></path>
	<path d="M346.5,330.2c7,4.8,5.6,9.7,7.3,16.4c0,0.8,0.8,1.3,1.6,1.3l0,0l11.3-0.5c0.3,0,0.5,0,0.5,0.5v0.8
		c0,0.8-0.5,1.6-1.3,1.6c-6.4,0.8-12.4,3-17.7,6.7c-1.1,0.8-2.4,1.1-3.8,1.1c-7.5-1.1-15-0.5-22,1.6c-3.5,1.1-7.3,1.9-11,2.1
		c-4,0.3-7.8,0.8-11.8,1.3c-0.5,0-0.8-0.3-0.8-0.5l0,0v-0.8c0-0.5,0.3-1.1,0.5-1.1c2.4-1.1,5.1-1.6,7.5-1.9c3.2,0,5.6-2.4,5.9-5.6
		l0,0c0.5-4,1.1-7.8,2.1-11.8c0.3-0.5,0-1.1-0.8-1.1c-10.5-0.8-18.3,2.7-23.9,10.2c-0.5,0.8-1.3,1.1-2.1,1.1c-4.6-0.3-7-1.9-7.3-5.1
		c11.3-12.1,29.3-12.4,44.9-13.7c3.5-0.5,7-1.1,10.5-2.1C339.2,330,342.7,329.7,346.5,330.2z M322.6,336.4c-1.1,0.3-2.1,1.1-2.1,2.1
		l-0.8,12.9c-0.3,1.3,0.8,2.7,2.1,2.7c0.3,0,0.5,0,0.8,0l20.9-3.5c1.3-0.3,2.1-1.6,2.1-3l0,0l-2.1-12.1c-0.3-1.3-1.3-2.1-2.7-1.9
		L322.6,336.4z" class="st3"></path>
	<path d="M322.6,336.4l18-2.7c1.3-0.3,2.4,0.8,2.7,1.9l2.1,12.1c0.3,1.3-0.5,2.7-1.9,3l0,0l-20.9,3.5
		c-1.3,0.3-2.7-0.5-3-1.9c0-0.3,0-0.5,0-0.8l0.8-12.9C320.4,337.5,321.5,336.4,322.6,336.4z" class="st6"></path>
	<path d="M520.5,344.5l0.3,8.9c0,1.6,1.3,3,3.2,3c0.5,0,1.1-0.3,1.3-0.5c2.4-1.6,5.1-2.4,8.1-2.4c7.5-0.5,15-1.3,22.6-3
		c10.2-1.6,20.7-1.1,30.6,1.6c-3.5-0.3-7,0.8-10.2,2.7c-0.8,0.5-1.6,1.1-2.7,1.3c-5.6,1.3-11,3-16.1,5.1c-7.8,3.2-15,2.1-22.6-0.8
		c-5.6-2.1-8.9-1.6-14.5-0.3l-0.3-14C521,345,521,344.7,520.5,344.5z" class="st1"></path>
	<path d="M230.4,346.9c1.9,0,2.4,0.5,2.1,1.1c-1.1,1.9-1.1,4.3,0,6.2l2.7,1.6c0.8,0.5,1.6,0.5,2.4,0.3
		c1.3-0.3,2.4-0.3,3.8,0c0.8,0,1.3,0.8,1.1,1.6l0,0c0,1.1,0,2.1,0.5,3.2c0.3,1.1,0.5,1.9,0.8,3c0,4.8-0.3,9.4-0.8,14
		c-0.3,1.6,0.5,3.2,1.9,4.3c2.1,1.3,4.8,1.9,7.5,1.6c0.8,0,1.3,0.5,1.3,1.1c0,0.3,0,0.3,0,0.5c0,0.3-0.3,0.3-0.5,0.5l0,0
		c3.2-0.5,6.4,0.3,9.1,2.4c0.5,0.5,1.3,1.1,2.4,1.1c5.1,1.1,9.9,3,14.2,5.9c1.1,0.8,2.4,1.1,3.5,1.1c7-0.3,14.2,0.5,20.9,2.7
		c4,1.3,8.3,1.9,12.6,2.1l12.9,0.5c0.8,0,1.6,0.3,2.4,1.1c1.3,1.3,3.2,2.4,4.8,3.5c0.3,0,0.3,0.3,0.3,0.5l0,0l0,0
		c0,0.3-0.3,0.3-0.5,0.3l0,0c-3.8-1.9-7.5-3.2-11.5-4c0,0-0.3,0-0.3,0.3l0,0l0,0c0,0.3,0,0.3,0.3,0.5c1.6,0.3,3.5,1.1,5.1,1.9
		c0.8,0.5,0.8,0.8,0,1.3c-0.3,0.3-0.8,0.3-1.1,0.3c-1.3-0.5-1.3-0.5,0,0.3c3.5,1.6,7,3.5,10.2,5.4c1.6,0.8,3,2.1,4,3.8
		c1.1,1.6,2.1,3.2,2.7,5.1c1.1,3.8-0.5,8.1-3.8,10.2c-0.8,0.5-0.8,0.8,0.3,1.1c1.9,0.3,3.5,1.1,4.6,2.4c1.9,1.9,3,3,3.2,3.5
		c4.6,4.3,5.6,10.2,3.5,18.3c-1.9-7.5-3.2-9.7-4.3-6.4c-0.3-9.9-4.3-15-11.5-15.3c2.4-8.9-7-11.5-13.7-8.6
		c-11.3,5.1-20.1,14.5-24.4,26.3c0,0.5-0.3,0.8-0.5,1.3c-0.5,0.5-0.8,1.3-0.8,2.1v10.7c0,0.8-0.5,1.9-1.6,1.9
		c-3.8,1.1-8.1,0.5-11.3-1.9c-0.8-0.5-2.1-1.1-3.2-0.8c-5.4,0.3-11,0.8-16.7,1.3c-8.3,0.8-16.9-4.3-24.7-7.8
		c-4.6-2.1-9.1-3.8-14-4.6c-16.7-3.5-30.3-7.8-36.8-25c-1.1-4-1.1-8.1,0-12.1c0.8-3.2,0-5.4-2.1-6.4c0.5-3.8,1.3-7.5,3-11.3
		c8.6-17.2,19.3-33.3,32-47.8C224.5,350.1,227.2,348.2,230.4,346.9z" class="st7"></path>
	<path d="M586.6,352c2.1-0.5,4.3,0.8,4.8,3.2c0.3,2.7,0.3,5.1-0.3,7.8c-2.1,18.3-5.4,36.3-9.4,54
		c-2.7,11.8-9.7,32.2-24.4,32.2c0.5-0.5,0.8-1.1,0.5-1.9c0-0.3-0.5-0.5-1.3-0.8c-9.9-1.6-19.3-2.7-27.7-3.5
		c-3.8-0.3-4.3-1.9-1.3-4.3c5.9-5.4,11-11.8,15.3-18.5c2.7-4.3,1.9-7.5-0.8-12.1c-8.9-15.3-16.1-31.4-21.8-48.1
		c5.4-1.3,8.9-1.9,14.5,0.3c7.5,3,14.8,4,22.6,0.8c5.4-2.1,10.7-3.8,16.4-5.1c1.1-0.3,1.9-0.5,2.7-1.3
		C579.6,353.1,583.1,352,586.6,352z" class="st8"></path>
	<path d="M430.5,352.5l12.9,9.1c1.9,1.3,2.4,3.8,1.1,5.6c-0.3,0.3-0.5,0.5-0.8,0.8l-10.7,8.6c-1.6,1.3-4,1.1-5.6-0.3
		L412,360.3c-1.6-1.6-1.6-4.3,0.3-5.9c0.5-0.5,1.3-1.1,2.4-1.1l13.2-1.6C428.7,351.7,429.5,352,430.5,352.5z" class="st9"></path>
	
		<ellipse ry="3.8" rx="5.9" cy="374.2" cx="282.1" class="st10" transform="matrix(0.6032 -0.7976 0.7976 0.6032 -186.5247 373.4514)"></ellipse>
	<path d="M462.5,374.8c1.9,1.3,3.5,3.2,4.6,5.1c5.1,8.3,5.1,17.2-0.3,26.3c-1.9,4-6.2,6.2-10.5,4.8
		c-7-1.9-12.4-3.2-16.9-9.4c-5.6-7.5-9.4-16.4-0.3-23.4C445.6,373.5,455.5,369.5,462.5,374.8z" class="st9"></path>
	
		<ellipse ry="4.8" rx="11.8" cy="382.9" cx="321.2" class="st3" transform="matrix(0.9988 -4.885007e-02 4.885007e-02 0.9988 -18.3199 16.149)"></ellipse>
	<path d="M360.4,391.2c-0.8,0-1.3-0.5-1.3-1.3l0,0v-0.5c0-5.6,4.6-9.9,10.2-9.9h1.6c5.6-0.3,10.5,3.8,10.7,9.4l0,0v0.5
		c0,0.8-0.5,1.3-1.3,1.3L360.4,391.2z" class="st3"></path>
	<path d="M737.5,478.8c3.5,1.6,4.3,0.8,2.4-2.7c-8.3-15.6-8.3-26.9-4.8-44.9c2.4-11.8,4.8-23.6,7.8-35.5
		c0.3-0.8,0.5-1.3,1.1-1.9c1.9-1.9,3.2-1.6,4,0.5c1.6,5.9,4.3,11.5,7.8,16.4c11,16.1,23.6,28.5,24.2,49.4c0.3,5.9,1.3,5.9,3.2,0.5
		c6.7-18,19.3-33,38.1-45.4c2.7-1.6,3.5-1.1,2.7,1.9c-2.7,10.5-4.8,21.2-6.4,32c-3.8,25.5-16.9,43.8-39.5,54.3
		c-1.6,0.8-2.4,2.1-2.7,3.8c-0.8,18-6.2,35.2-15,50.8c-2.7,4.8-12.9,18.5-19.1,18.8c-0.5,0-1.1-0.5-1.3-1.1c0-0.3,0-0.5,0.3-0.8
		c14.5-18.8,25.8-43,25.8-66.9c0-1.3-1.1-2.7-2.4-2.7h-0.3c-16.4-1.1-34.1-4.6-44.9-18.5c-5.6-7.3-10.7-15-15.6-22.8
		c-0.8-1.3-1.1-2.7-1.1-4.3c0-0.5,0.3-0.8,0.8-0.8c0.3,0,0.3,0,0.5,0.3C714.2,466.7,725.7,473.1,737.5,478.8z" class="st11"></path>
	<path d="M477.3,426.9c-2.4-0.3-3.2,0.8-3,3.2c1.1,3.5,0.5,7-1.6,9.9c-3.2,4-9.1,6.4-13.7,1.3c-5.9-7-9.9-14.8-6.4-22.8
		c0.5-1.6,2.4-2.4,4-1.6l0,0c2.4,1.1,4.8,1.6,7.3,1.6c1.3,0,2.7-0.8,3.8-1.9c1.3-1.6,2.7-3.2,4-5.1c3.8-4.8,13.2-8.6,18.5-11
		c2.1-1.1,4.6-0.5,6.2,1.1c1.9,1.6,3.5,3.8,4.6,6.2c0.8,1.3,0.5,3.5-1.1,4.3c-0.3,0.3-0.8,0.3-1.1,0.5l-5.6,2.1
		c-0.8,0.3-1.6,1.1-1.9,1.9l-2.4,7.3c-0.3,0.8-0.8,1.3-1.6,1.6C484.3,426.7,480.8,427.2,477.3,426.9z" class="st9"></path>
	<path d="M298.7,453.2l0.3,1.9c-1.9,7.5,0,15.3,4.6,21.5c-1.9-0.3-3,1.6-3,5.4c0,0.8-0.3,1.6-0.5,2.4
		c-1.6,3.5-1.6,7.5,0.3,10.7c0.5,0.8,0.3,1.6-0.3,2.4c-0.8,1.1-2.4,1.9-3.8,1.9c-5.4,1.6-11,1.3-16.1-0.5
		c-8.6-4.6-15.6-11.8-19.6-20.4c-0.5-1.1-0.8-2.1-0.8-3.2v-1.3c0-0.8-0.5-1.6-1.3-1.9c-6.2-2.4-12.1-5.1-18-8.3
		c-4.6-2.1-9.4-3.8-14.5-4.8c-19.6-4-35.2-10.7-41.9-31.2l3.2-15.6c2.1,1.1,3,3.2,2.1,6.4c-1.1,4-1.1,8.1,0,12.1
		c6.7,17.2,20.1,21.2,36.8,25c4.8,1.1,9.7,2.7,14.2,4.6c7.5,3.5,16.1,8.6,24.7,7.8c5.6-0.5,11.3-1.1,16.7-1.3c1.1,0,2.1,0.3,3.2,0.8
		c3.2,2.4,7.3,3.2,11.3,1.9c0.8-0.3,1.6-1.1,1.6-1.9v-10.7c0-0.8,0.3-1.6,0.8-2.1C298.4,454.1,298.7,453.5,298.7,453.2z
		 M277.7,487.9c4.8-3,8.3-7.8,9.1-13.4c0.5-2.1-0.8-4-3-4.6c-0.3,0-0.8,0-1.1,0l-17.2,1.3c-1.3,0-2.4,1.3-2.4,2.7c0,0.3,0,0.5,0,0.5
		c1.3,4.3,3.5,8.3,6.2,12.1C271.5,488.7,275,489.5,277.7,487.9L277.7,487.9z" class="st12"></path>
	<path d="M336.8,435.5c-5.1,4.8-11,15-6.4,21.8c2.1,3.5,5.6,4.6,10.5,3.5c4.6-1.1,7.3-4.3,7.5-9.9
		c0.8-3.2,2.4-1.1,4.3,6.4c0.5,7.3-0.3,14.8-2.1,21.8c-1.3,1.3-3,1.9-4.8,1.9c-1.6-0.3-3-1.1-4.3-2.1c-1.3-1.1-3-2.1-4.6-3.2
		l-4.6-3.2c-0.8-0.5-1.6-1.3-2.1-2.4c-0.3-0.8,0-1.3,0.8-1.6c0.5,0,1.3-0.5,1.6-0.8c0.5-0.3,0.8-1.1,0.3-1.6c0-0.3-0.3-0.3-0.3-0.3
		c-1.3-1.1-3-2.1-4.6-2.7c-0.8-0.3-1.6-0.8-2.1-1.6c-1.9-3.5-5.9-5.1-9.7-4.6c-4.3,0.5-8.6,1.6-12.6,3c-2.1,0.5-3.5-0.8-4.6-4.3
		l-0.3-1.9c4.3-11.5,12.9-21.2,24.4-26.3C329.6,423.7,339.2,426.4,336.8,435.5z" class="st13"></path>
	<path d="M184,427.2c6.7,20.4,22.3,27.1,41.9,31.2c5.1,1.1,9.9,2.7,14.5,4.8c5.9,3,11.8,5.9,18,8.3
		c0.8,0.3,1.3,1.1,1.3,1.9v1.3c0,1.1,0.3,2.4,0.8,3.2c4,8.9,11,16.1,19.6,20.4c5.1,2.1,10.7,2.4,16.1,0.5l5.9,0.5
		c0.8,0,1.6,0.5,1.9,1.3c3.8,7.5,7,15.3,9.9,23.4c1.3,3.8,2.7,7.3,4.3,10.5c1.6,3.5,3.2,7,4.8,10.2c2.1,4.6,6.2,7,8.3,10.2
		c0.5,0.8,0.5,1.6-0.3,2.1c-0.3,0.3-0.3,0.5,0.3,0.8c0.5,0,1.1,0.5,1.1,1.1s0.3,1.1,1.1,0.8c3.5-1.1,7.3,0.8,8.3,4.3
		c0,0.3,0,0.5,0.3,0.5c-29-12.4-60.7-16.7-91.9-12.6c-3.8,0.5-7,3.8-10.2,9.4l-0.3-2.1c0-0.8-0.8-1.3-1.3-1.1l0,0h-0.8
		c-0.8,0-1.6,0.3-2.4,1.1l-14,13.4c-0.5,0.5-1.6,0.8-2.4,1.1h-29.5c-2.7-3.8-3.8-8.6-3.2-13.2c0.3-0.8,0.5-1.6,1.3-2.1
		c7.8-6.4,10.7-15,14.5-25.8c0.3-0.8,0.8-1.6,1.6-2.1l5.9-5.4c1.1-1.1,3-1.1,4,0c4.3,4,9.1,7.5,14,10.5c2.1,1.9,4.3,3.8,6.2,5.9
		c0.8,0.5,1.3,0.5,1.6-0.5c0.5-1.3,0-3-1.3-3.8c-12.4-9.4-23.9-19.6-34.9-30.3c-8.6-8.3-15-18.5-19.1-29.5
		C174,462.9,178.3,441.4,184,427.2z" class="st11"></path>
	<path d="M336.8,435.5c7.3,0,11.3,5.1,11.5,15.3c-0.5,5.6-3,8.9-7.5,9.9c-4.6,1.1-8.3,0-10.5-3.5
		C325.8,450.3,331.7,440.4,336.8,435.5z" class="st14"></path>
	<path d="M632,451.9l-50,1.6c-0.8,0-1.6-0.3-2.4-0.8c-3.2-2.1-7-3.5-10.7-4c13.4-2.4,27.1-3,40.8-1.9
		C617.5,447.3,625,449,632,451.9z" class="st15"></path>
	<path d="M569.1,448.7c3.8,0.5,7.5,1.9,10.7,4c0.8,0.5,1.6,0.8,2.4,0.8l50-1.6c3.2,1.1,4.6,3.8,3.8,7.8
		c-3,14.8-5.9,29.5-9.4,44.3c-0.8,1.9-1.6,3.8-3,5.4c-10.5,15.6-24.7,28.7-41.4,37.9c-0.8,0.5-1.1,1.6-0.5,2.4
		c0.3,0.3,0.5,0.5,1.1,0.8l8.3,2.7c0.8,0.3,1.6,0,2.4-0.5c6.2-6.2,15-7.5,26.9-3.8c-5.1-0.8-10.2-0.8-15-0.3c-0.5,0-1.1,0.5-1.3,1.1
		c-0.5,0.8-0.3,1.6,0.8,1.6c0.5,0,1.1,0.5,1.1,1.3c0,0.5,0,0.8-0.3,1.1c-1.9,3.2-4.3,6.2-7,8.6c-1.3,1.3-3.5,1.3-5.1,0.5
		c-4.8-2.4-9.1-5.6-12.9-9.7c-0.5-0.8-1.1-1.6-0.8-2.4c0-1.1,0.5-1.9,1.1-2.7c0.5-0.8,0.5-1.9-0.3-2.4c-1.3-1.1-3-1.9-4.8-2.1
		c-2.4-0.3-2.7-1.1-0.8-2.7c1.9-1.6,4-3.2,6.2-4.8c2.4-1.3,4.3-3.2,5.9-5.6c3.2-4.8,3-10.5-0.8-17.2c-3.8-6.4-8.1-10.7-11.3-18
		c-3-6.7-6.2-13.2-9.9-19.6c-0.5-0.8-0.8-1.6-0.5-2.4c0-1.1-0.3-2.1-1.1-3c-0.5-0.5-1.1-1.1-1.6-1.6c-1.3-1.6-2.7-3-4-4.6
		c-0.5-0.5-1.3-1.1-2.1-1.3c-2.1-0.5-4.3-1.6-5.9-3.2c-3.5-3.5-3.2-5.9,1.1-7.3c-0.3,0.8-0.5,1.9-0.5,2.7c0.3,2.7,3,4.6,5.6,4
		c0.8,0,1.3-0.3,1.9-0.8C559.5,456.2,564,453,569.1,448.7z" class="st7"></path>
	<path d="M299.2,455.1c1.1,3.5,2.7,4.8,4.6,4.3c4-1.3,8.3-2.4,12.6-3c3.8-0.5,7.8,1.1,9.7,4.6c0.5,0.8,1.1,1.3,2.1,1.6
		c1.6,0.5,3.2,1.6,4.6,2.7c0.5,0.3,0.8,1.1,0.3,1.6c0,0.3-0.3,0.3-0.3,0.3c-0.5,0.5-1.1,0.8-1.6,0.8c-0.8,0.3-1.1,0.8-0.8,1.6
		c0.5,1.1,1.3,1.9,2.1,2.4c-6.4-0.3-11,2.1-12.9,7.5c-0.3,4-3.5,5.4-10.2,4c-2.7-1.6-4.6-4-5.6-7
		C298.9,470.4,297.3,462.6,299.2,455.1z" class="st16"></path>
	<path d="M508.4,462.6c1.1,4.6,1.1,9.4,0.5,14c-0.3,1.1-0.5,1.3-1.3,0.3c-2.4-3.2-4.6-6.7-5.9-10.5
		c-0.3-0.8-0.3-1.9,0.3-2.4c0.8-1.6,2.4-3,4.3-3C507.1,460.8,508.2,461.6,508.4,462.6C508.4,462.4,508.4,462.6,508.4,462.6z" class="st17"></path>
	<path d="M286.8,474.5c-0.8,5.6-4.3,10.5-9.1,13.4c-2.7,1.6-6.2,0.8-8.1-1.6c-2.7-3.5-4.8-7.8-6.2-12.1
		c-0.5-1.3,0.3-2.7,1.6-3.2c0.3,0,0.3,0,0.5,0l17.2-1.3c2.1-0.3,3.8,1.3,4,3.5C286.8,473.7,286.8,473.9,286.8,474.5z" class="st18"></path>
	<path d="M332.2,472l4.6,3.2c1.1,4.6-0.5,7.5-4.3,8.9c-4.8,2.1-10.7,0.3-13.2-4.6C321.5,474.2,325.8,471.8,332.2,472z" class="st19"></path>
	<path d="M376.3,498.4c-1.1,0-2.1-0.8-3.2-2.1c-3.2-7.3,0.3-14.5,2.7-21.5c0.5-1.6,1.6-1.9,2.7-1.1
		c0.3,0.3,0.5,0.5,0.5,0.8C379.8,479.8,381.4,494.9,376.3,498.4z" class="st20"></path>
	<path d="M514.6,479.8c8.3-12.4,19.6-6.4,26.6,2.7c1.9,2.1,3,4.8,3.2,7.5c0.8,7.3-1.9,14.5-7.3,19.9
		c-1.6,2.1-4.3,3-7,2.1c-3-0.8-5.6-3-7-5.9c-3.5-7.5-7.5-14.5-11.8-21.5c-0.5-0.5-0.5-1.6,0-2.1c0.3-0.3,0.3-0.3,0.5-0.3
		C513,481.7,514.1,480.9,514.6,479.8z" class="st9"></path>
	<path d="M337.1,475.3c1.6,0.8,3.2,1.9,4.6,3.2c1.1,1.1,2.7,1.9,4.3,2.1c1.9,0.3,3.5-0.5,4.8-1.9
		c1.3,2.4,2.4,5.1,3,8.1c0.3,0.8,0,1.9-0.5,2.4c-1.3,2.1-3.2,3.8-5.6,4.8c-2.1,1.1-4,2.4-5.9,3.8c-1.9,1.6-3.2,3.5-4.8,5.4
		c-1.1,1.1-1.6,1.6-1.9,1.9c-1.6,1.6-1.9,4.3-0.3,6.2c4.6,5.9,12.1,8.6,19.6,7.3c7.8-1.1,14.2-9.1,18-15.8c0.8-2.1,1.1-4.6,1.1-7
		c1.1,1.6,2.4,2.1,3.2,2.1c-1.9,1.9-2.1,3.5-0.5,4.8c0.8,0.5,1.1,1.9,0.3,2.7c-3.5,5.1-7.5,9.9-12.1,14.2c-3.5,3.2-9.1,4.8-17.2,4.8
		c-11.8-1.3-18.5-7.5-20.4-18.3c-0.5-10.2-7.3-19.3-16.9-23.1c6.4,1.3,9.9,0,10.2-4c2.4,4.8,8.3,6.7,13.2,4.6
		C336.5,482.8,337.9,479.8,337.1,475.3z" class="st21"></path>
	<path d="M303.8,476.6c1.1,3,3,5.4,5.6,7c9.7,3.8,16.4,12.6,16.9,23.1c1.9,10.7,8.6,16.9,20.4,18.3h13.2
		c2.1,0,3.8,1.3,4.3,3.2l1.6,4.8c0.3,0.8,0.8,1.6,1.9,1.9c1.6,0.5,3.2,0.3,4.8-0.3c2.7,0,5.1-0.8,7.3-1.9
		c14.2-7.8,29.3-13.7,45.1-17.5c-0.8,1.3-0.5,3,0.5,4c-9.7,3-20.4,7.8-26.1,16.7c-0.8,1.3-0.5,3.2,0.8,4.3c0.3,0.3,0.5,0.3,0.8,0.3
		c4,1.3,7.5,0.3,11.5-2.4c3.2-2.1,6.7-3.5,10.5-4.3c1.1-0.3,2.1,0.5,2.4,1.6c0,0.3,0,0.5,0,1.1l-1.1,4.3c-0.3,0.8,0,1.9,0.5,2.7
		c0.3,0.8,0.8,1.3,1.6,1.9c1.6,1.1,1.6,2.1,0.3,3.2c-11.3,11,9.4,21.5,17.5,22.8c5.6,1.1,5.9,2.7,0.5,5.1
		c-10.2,4.6-19.9,9.9-29.3,15.8c-4.6,3-9.7,3.8-13.7,7c-1.3,1.1-1.1,1.6,0.5,1.3c5.1-0.3,10.2-1.6,14.8-3.8
		c10.2-5.4,22.3-14,33.6-15.8c4.8-0.8,7.8,0.3,8.9,3.5c0.3,1.3,0,2.4-0.8,3.5l-8.6,8.9c-1.6,1.6-2.1,3.8-2.1,5.6
		c0,1.3,1.1,2.1,2.1,2.4c4.6,0.8,6.7,3.2,6.2,7c0,0.8-0.5,1.6-1.3,1.9c-3.5,1.6-7.5,0.8-10.5-1.6c0.3-1.6-0.5-3.2-1.9-4
		c-1.6-1.1-3.5-0.5-4.6,0.8c0,0,0,0,0,0.3l-5.6,9.7c-0.8,1.3-0.5,3,0.8,3.8c0.5,0.3,0.8,0.3,1.3,0.5c4,0,7.8-1.3,10.7-3.5
		c2.1,0.5,4.3,1.6,5.9,3.5c0.5,0.8,0.8,1.6,0.5,2.4c-0.3,1.9-1.1,3.8-2.4,5.1c-0.5,0.5-0.8,1.1-0.8,1.9v1.1c0,0.8-0.3,1.6-1.1,2.1
		c-1.1,1.1-1.9,2.4-2.7,3.8c-1.1,3-4,4.8-7.3,4.6l-25.5-2.1c-1.3,0-2.7,0.3-3.8,1.3c-3.8,3.8-8.9,5.6-14,5.6c-1.3,0-2.4,0.5-3,1.6
		c-3.8,7-10.5,12.1-18,14.2c-1.3,0.5-2.7,0.3-3.8-0.3c-0.5-0.3-1.1-0.3-1.1,0.5c-0.3,1.3-0.5,1.9-1.3,1.6c-0.3-1.1-0.3-2.1,0-3.2
		c3-11.5,6.2-23.4,9.7-34.9c2.7-9.1,2.4-17.2-1.1-23.9c-3.8-7.5-11.3-17.5-22.6-29.8c-3.2-3.5-6.7-6.7-10.7-9.4
		c-0.8-3.5-4.3-5.9-7.8-5.1c-0.3,0-0.5,0-0.5,0.3c-0.5,0.3-1.1-0.3-1.1-0.8s-0.3-1.1-1.1-1.1c-0.5,0-0.5-0.3-0.3-0.8
		c0.5-0.5,0.8-1.6,0.3-2.1c-2.1-3.2-6.2-5.6-8.3-10.2c-1.6-3.2-3.2-6.7-4.8-10.2c-1.6-3.5-3-6.7-4.3-10.5c-3-8.1-6.2-15.6-9.9-23.4
		c-0.3-0.8-1.1-1.3-1.9-1.3l-5.9-0.5c1.6,0,3-0.5,3.8-1.9c0.5-0.5,0.5-1.6,0.3-2.4c-1.9-3.2-2.1-7.3-0.3-10.7
		c0.3-0.8,0.5-1.6,0.5-2.4C300.8,478.2,301.9,476.3,303.8,476.6z M413.1,577.9c1.3-3.5,0.8-7.5-1.6-10.2c-1.6-2.4-4.6-3.8-7.5-3.8
		c-4.6,0-9.1,0.3-13.7,0.8c-1.3,0.3-2.4,1.3-2.4,2.4c-1.3,7.3,2.1,14.5,8.9,18c2.4,1.3,5.4,1.3,7.8,0.3
		C409.1,583.2,412,580.8,413.1,577.9z" class="st9"></path>
	<path d="M371.7,502.9c-3.8,6.7-10.2,14.5-18,15.8c-7.3,1.3-14.8-1.3-19.6-7.3c-1.6-1.9-1.3-4.6,0.3-6.2
		c0.3-0.3,0.8-0.8,1.9-1.9c9.7-9.9,20.4-13.2,32.2-19.1c0.8-0.3,1.6,0,1.9,0.5c0.3,0.3,0.3,0.5,0,0.8l-0.8,3.5
		c-0.3,0.8-0.3,1.9,0,2.7L371.7,502.9z" class="st22"></path>
	<path d="M724.1,690.7l11.5-3.5c1.6-0.5,3.2,0.3,3.8,1.9c0.3,0.5,0.3,0.8,0,1.3c-1.3,7.3-3.2,12.4-5.4,15.3
		c-4,0.5-7.8,3-11,7.8c-0.3,0.3-0.5,0.5-0.8,0.5h-0.8c-0.3,0-0.8,0-1.1,0.3l-7.3,5.1c-0.8,0.5-1.6,0.8-2.4,0.5
		c-1.6-0.3-3.2,0.3-4.3,1.3c-1.3,1.1-2.7,1.9-4,2.4c-3.8,1.3-7.5,2.4-11.3,2.4c-2.7,0-5.4-0.5-7.8-1.6c-2.4-1.1-4.8-1.6-7.5-2.1
		c-0.5,0-1.1-0.3-1.3-0.8c-0.3-0.3-0.3-0.5-0.5-0.5c-0.5-0.5-1.3-0.8-2.1-0.8c-2.4,0.5-5.1-0.3-7-1.9c-5.4-4.6-12.6-7-19.9-6.2
		c-2.4,0-4.3-1.6-4.3-4c0-1.1,0.3-2.1,1.1-3l5.4-5.6c0.8-0.8,0.8-2.4,0-3.2c-0.3-0.3-0.8-0.5-1.3-0.5c-7-0.8-11.3,1.6-13.4,6.7
		c-0.8,1.9-2.7,3-4.8,2.1c-3-1.1-5.6-2.7-8.1-4.6c-0.8-0.5-1.6-1.1-2.4-1.1l-14-2.1c-0.8-0.3-1.6-0.8-2.1-1.3
		c-1.6-3-4.6-4.8-7.8-5.1c-3.8-0.5-7.5-1.9-10.5-4.3c-5.9-4.3-11.3-5.9-17.2-9.1c-0.8-0.5-1.6-0.8-2.4-0.8
		c-5.4-0.5-5.6-6.4-5.6-11.3c0-1.6,1.1-3,3.5-3.8c0.3,0,0.5-0.3,0.5-0.5c0,0,0,0,0-0.3l-0.3-0.8c0-0.3-0.3-0.3-0.5-0.3l0,0l-5.4,1.9
		c-0.8,0.3-1.3,0.5-1.9,1.3c-2.7,3.2-6.2,5.6-10.2,6.7l-8.1-17.5c-1.1-2.1-2.4-4.3-3.8-6.2c-3.5-3.5-7.3-6.7-11.3-9.7
		c-8.3-5.6-10.2-17.2-9.7-26.3c0-0.8-0.3-1.6-0.8-2.4l-3.8-5.1c2.1-17.7-20.7-29.3-34.9-30.6c-1.1,0-1.9-1.1-1.9-2.1
		c0-0.3,0-0.3,0-0.5c1.6-4.3,2.7-8.9,3.5-13.4c0.3-3,1.3-3.2,3.2-0.8c4,5.4,13.2,3,11.5-5.4c-0.5-3-1.1-5.4-1.6-7.8
		c-0.3-0.8-1.1-1.3-1.9-1.1c-0.3,0-0.5,0.3-0.8,0.5l-6.4,7c-1.1,1.1-2.7,1.3-3.8,0.3c-0.5-0.5-0.8-1.1-0.8-1.9
		c-0.5-12.4-3-24.4-7-36.3c-0.8-2.7-3.5-4.3-6.2-3.5c-0.3,0-0.5,0.3-1.1,0.3l-0.3-2.1c0-1.1-0.8-1.6-1.6-1.9l-5.1-0.5l21.5-5.1
		c0.8-0.3,1.9,0,2.4,0.5c9.4,6.7,19.6,12.6,29.8,17.7c8.1,4,16.1,8.9,23.6,14c3.8,2.7,5.9,7,9.4,9.1c12.4,7.8,24.4,15.6,36.5,23.9
		c2.1,1.3,4,3,5.9,4.3c4.6,3.8,3.8,5.1-1.9,4c-19.9-3.8-43,12.9-22.6,32.5c5.6,5.4,12.6,9.9,20.1,9.9c8.6,0,22-8.6,24.4-17.2
		c0.3-1.1,1.3-1.6,2.4-1.3c0.5,0.3,0.8,0.5,1.1,0.8c2.1,3.5,4.8,6.7,8.1,9.1c0.5,0.5,1.1,1.3,1.3,2.1c0.3,1.9,1.1,3.8,2.1,5.4
		c4,4,8.3,7.8,12.6,11.3c4.3,3.8,8.3,7.8,11.8,12.1c4,5.1,8.1,10.2,12.4,15c3.2,4,10.2,9.4,13.7,15.8c0.5,0.8,1.1,1.3,1.6,1.9
		c4.6,2.7,6.7,8.3,4.6,13.4c-0.3,1.1,0,2.4,1.1,3c14.5,8.3,25.5,17.2,43,14.8C721.9,698.5,724.4,695.5,724.1,690.7z M535,547
		c-1.9-7.3-3.2-14-11.5-16.1c-9.7-3.2-19.9-2.7-29.3,1.3c-1.3,0.5-1.9,1.9-1.1,3.2l0,0l10.5,20.7c0.8,1.6,2.4,2.7,4,2.7l12.4,0.5
		c2.4,0.3,5.1-0.3,7.5-1.3C531.3,555.8,536.4,551.5,535,547L535,547z M536.4,567.1c-7.5-0.3-15,0.3-22.6,1.6c-0.8,0-1.3,0.5-1.3,1.3
		v0.3c0.8,6.4,8.9,11.8,13.4,15.6c1.3,1.1,3,1.3,4.8,1.1c5.1-1.1,9.4-4.8,11-9.7c1.6-3.8-0.3-8.3-4.3-9.7
		C537.2,567.1,536.9,567.1,536.4,567.1L536.4,567.1z M531.3,627.6c3,3,7.5,3.2,11.3,1.3l8.6-4.8c4.6-2.7,6.2-8.6,3.5-13.2
		c-0.8-1.6-2.4-3-4-3.8l-11.3-5.6c-4.8-2.4-10.5-0.5-12.9,4.3c-0.3,0.3-0.3,0.5-0.3,0.8l-2.1,5.9c-1.3,3.8-0.5,7.8,2.4,10.5
		L531.3,627.6z M623.6,627.3c0.8-5.9-5.4-11.8-14-13.2c-8.6-1.3-16.4,2.7-17.2,8.6c-0.8,5.9,5.4,11.8,14,13.2
		C615.1,637.2,622.6,633.2,623.6,627.3L623.6,627.3z M637.6,650.4c-1.3-0.8-3-1.1-4.3-0.8c-2.4,0.3-4.3,2.4-4.3,5.1
		c0,0.3,0,0.8,0.3,1.1c3,8.9,11.3,15,20.4,10.2c0.8-0.5,1.3-1.3,1.3-2.1C651.6,655.5,643.5,653.3,637.6,650.4L637.6,650.4z" class="st23"></path>
	<path d="M450.7,501.3l5.1,0.5c1.1,0,1.6,0.8,1.6,1.9l0.3,2.1c-6.7,4.6-12.1,10.7-15.8,17.7c-1.1,2.1-3.8,2.7-5.6,1.6
		l0,0l-10.7-6.2c-1.1-1.1-1.3-2.7-0.5-4C432.1,508.6,441,503.7,450.7,501.3z" class="st19"></path>
	<path d="M457.7,505.9c2.4-1.1,5.4-0.3,6.7,2.4c0.3,0.3,0.3,0.5,0.3,1.1c4,11.5,6.4,23.9,7,36.3c0,1.6,1.3,2.7,2.7,2.7
		c0.8,0,1.3-0.3,1.9-0.8l6.4-7c0.5-0.5,1.3-0.5,2.1,0c0.3,0.3,0.3,0.5,0.5,0.8c0.5,2.4,1.1,5.1,1.6,7.8c1.6,8.1-7.3,10.7-11.5,5.4
		c-1.9-2.4-3-2.1-3.2,0.8c-0.5,4.6-1.9,9.1-3.5,13.4c-0.3,1.1,0,2.1,1.1,2.7c0.3,0,0.3,0,0.5,0c14.5,1.6,37.1,12.9,34.9,30.6
		c-4.8,11.3-14.5,19.9-26.6,23.1l-7-2.7c-8.9,1.3-13.4-2.4-13.7-11c0-2.4-1.6-4.6-4-5.4c-4-1.1-5.4-4-4.3-8.6l8.6-9.1
		c0.8-0.8,1.1-2.1,0.8-3.5c-0.8-3.2-3.8-4.6-8.9-3.5c-11.3,2.1-23.4,10.5-33.6,15.8c-4.6,2.1-9.7,3.2-14.8,3.8
		c-1.6,0.3-1.9-0.3-0.5-1.3c4-3.2,9.1-4,13.7-7c9.4-5.9,19.3-11.3,29.5-15.8c5.1-2.4,5.1-4-0.5-5.1c-8.3-1.6-28.7-12.1-17.7-22.8
		c1.3-1.3,1.1-2.4-0.3-3.2c-0.5-0.5-1.1-1.1-1.6-1.9c-0.5-0.8-0.8-1.9-0.5-2.7l1.1-4.3c0.3-1.1-0.5-2.1-1.6-2.4c-0.3,0-0.5,0-1.1,0
		c-3.8,0.8-7.3,2.1-10.5,4.3c-4,2.7-7.5,3.8-11.5,2.4c-1.6-0.5-2.4-2.4-1.9-4c0-0.3,0.3-0.5,0.3-0.8c5.6-8.9,16.4-13.7,26.1-16.7
		l10.7,6.2c2.1,1.1,4.6,0.5,5.9-1.6l0,0C445.6,516.4,451.2,510.5,457.7,505.9z" class="st3"></path>
	<path d="M189.1,574.1c5.6,8.9,14.5,18.5,27.1,28.5c3.5,2.7,6.7,3.2,9.4,1.3l-1.9,9.4c-11.8-10.2-19.6-16.9-23.1-20.4
		c-19.6-18.5-25.5-41.4-17.7-68.2c1.1-4.6,3.5-8.9,6.4-12.4c0.3-0.5,0.8-0.8,1.6-0.5c1.1,0.3,1.3,0.8,0.8,1.6l-4,10.5
		c-0.3,1.1,0,2.1,1.1,2.7c0.3,0,0.3,0,0.5,0c6.2,0.5,15.8,1.3,16.9-6.7c0.3-0.8-0.3-1.9-0.8-2.4c-3-3-5.1-6.4-6.4-10.5
		c11,10.7,22.6,20.9,34.9,30.3c1.3,0.8,1.9,2.1,1.3,3.8c-0.3,1.1-0.8,1.1-1.6,0.5c-1.9-2.1-4-4-6.2-5.9c-4.8-3.2-9.7-6.7-14-10.5
		c-1.1-1.1-3-1.1-4,0l-5.9,5.4c-0.8,0.5-1.1,1.3-1.6,2.1c-3.8,10.7-6.7,19.3-14.5,25.8c-0.8,0.5-1.1,1.3-1.3,2.1
		C185.3,565.8,186.4,570.3,189.1,574.1z" class="st10"></path>
	<path d="M535,547c1.3,4.8-3.8,8.9-7.5,10.7c-2.4,1.1-4.8,1.6-7.5,1.3l-12.4-0.5c-1.9,0-3.2-1.1-4-2.7l-10.5-20.7
		c-0.5-1.1-0.3-2.7,1.1-3.2l0,0c9.4-4,19.6-4.3,29.3-1.3C531.5,533,532.9,539.7,535,547z" class="st3"></path>
	<path d="M341.9,565.2c4,2.7,7.5,5.9,10.7,9.4c11.3,12.4,18.8,22.3,22.6,29.8c3.5,6.7,3.8,14.8,1.1,23.9
		c-3.5,11.5-6.7,23.1-9.7,34.9c-1.6,2.4-3,3.5-4.3,3.8c-9.9,1.9-19.9,4-29.5,6.4c-9.7,2.4-19.6,4.3-29.8,5.6
		c-18.5,2.1-37.6,3.5-56.9,4c-6.4-6.2-11-13.7-13.7-22c-1.1-3-2.1-3-3.2,0c0,0.8,0.3,1.6,0.3,2.1c-5.6-15.8-7.8-33-5.9-50l1.9-9.4
		c4-14.8,6.2-28.7,14.5-41.9c3-5.9,6.4-9.1,10.2-9.4C281.2,548.6,312.9,553.2,341.9,565.2z" class="st18"></path>
	<path d="M239.8,562c-8.1,13.2-10.5,27.1-14.5,41.9c-2.7,1.9-5.9,1.3-9.4-1.3c-12.6-9.9-21.5-19.6-27.1-28.5h29.8
		c0.8,0,1.6-0.3,2.4-1.1l14-13.4c0.5-0.5,1.3-1.1,2.4-1.1h0.8c0.8,0,1.3,0.5,1.3,1.1l0,0L239.8,562z" class="st22"></path>
	<path d="M413.1,577.9c-1.1,2.7-4,5.4-8.9,7.5c-2.4,1.3-5.4,1.3-7.8-0.3c-6.4-3.5-10.2-10.7-8.9-18
		c0.3-1.3,1.1-2.4,2.4-2.4c4.6-0.5,9.1-0.8,13.7-0.8c3,0,5.6,1.3,7.5,3.8C413.9,570.6,414.7,574.4,413.1,577.9z" class="st21"></path>
	<path d="M536.4,567.1c4,0.8,6.7,4.6,5.9,8.9c0,0.5-0.3,1.1-0.5,1.3c-1.6,4.8-5.9,8.6-11,9.7c-1.6,0.5-3.5,0-4.8-1.1
		c-4.6-3.8-12.9-9.1-13.4-15.6c-0.3-0.8,0.3-1.3,1.1-1.6h0.3C521.3,567.4,528.8,566.9,536.4,567.1z" class="st3"></path>
	<path d="M450.1,596.9c-1.3,4.6,0.3,7.5,4.3,8.6c2.4,0.8,4,3,4,5.4c0,8.6,4.6,12.4,13.7,11c-7.5,0.5-14,4.8-17.5,11.5
		c-3.5,6.4-2.4,11.3,3.2,14.5c5.6,3,12.4,3.2,18.3,0.5c4.3-1.6,7.8-5.1,9.7-9.4c0.3-0.8,0.5-1.9,0.3-2.7c-1.1-4.6-3.2-8.6-6.4-12.1
		c11.8-3.2,21.8-11.8,26.6-23.1l3.8,5.1c0.5,0.8,0.8,1.6,0.8,2.4c-0.5,9.4,1.3,20.7,9.7,26.3c4,3,7.8,6.2,11.3,9.7
		c1.6,1.9,2.7,4,3.8,6.2c-0.8-0.5-1.6-1.1-2.1-1.9c-0.5-0.8-1.1-0.8-1.3,0.3c-0.5,1.3-0.5,3,0,4.3c-1.6-5.1-5.1-9.1-9.7-11.8
		c-8.1-4.8-15.8-0.8-17.5,7.5c-0.3,1.3,0,2.4,0.8,3.5c3.5,4,5.1,9.1,5.1,14.5c0,1.1,0.5,1.9,1.3,2.4c1.3,0.8,3,1.3,4.8,1.3
		l-18.8,2.4c-1.1-0.3-2.1,0.5-2.4,1.6c0,0.8,0.3,1.6,0.8,1.9c8.3,8.9,18.5,15.6,29.8,20.1c10.5,4,18.3-3,21.2-12.4
		c0.8-2.7,0.5-5.9-0.5-8.3c-1.1-3-2.1-5.6-3.5-8.1c4-1.1,7.5-3.5,10.2-6.7c0.5-0.5,1.1-1.1,1.9-1.3l5.4-1.9c0.3,0,0.5,0,0.5,0.3l0,0
		l0.3,0.8c0.3,0.3,0,0.5-0.3,0.8c0,0,0,0-0.3,0c-2.4,0.8-3.5,2.1-3.5,3.8c0,4.8,0.3,10.7,5.6,11.3c0.8,0,1.6,0.3,2.4,0.8
		c5.9,3.2,11.3,4.8,17.2,9.1c3.2,2.1,6.7,3.8,10.5,4.3c3.2,0,6.2,2.1,7.8,5.1c0.5,0.8,1.3,1.3,2.1,1.3l14,2.4
		c0.8,0.3,1.9,0.5,2.4,1.1c2.4,2.1,5.1,3.5,8.1,4.6c1.9,0.5,4-0.3,4.8-2.1c1.9-5.1,6.4-7.5,13.4-6.7c1.3,0,2.1,1.3,2.1,2.4
		c0,0.5-0.3,1.1-0.5,1.3l-5.4,5.6c-1.6,1.6-1.6,4.3,0.3,5.9c0.8,0.8,1.9,1.1,3,1.1c7.3-0.8,14.2,1.6,19.9,6.2c1.9,1.6,4.3,2.4,7,1.9
		c0.8,0,1.6,0.3,2.1,0.8c0.3,0.3,0.3,0.3,0.5,0.5c0.3,0.5,0.8,0.8,1.3,0.8c2.4,0.5,5.1,1.3,7.5,2.1c2.4,1.1,5.1,1.6,7.8,1.6
		c4-0.3,7.8-1.1,11.3-2.4c1.6-0.5,3-1.3,4-2.4c1.3-1.1,2.7-1.3,4.3-1.3c0.8,0,1.6-0.3,2.4-0.5l7.3-5.1c0.3-0.3,0.5-0.3,1.1-0.3h0.8
		c0.3,0,0.5-0.3,0.8-0.5c3.5-4.8,7-7.5,11-7.8c-4.3,6.7-10.5,12.1-17.5,15.8c-22.8,11.5-47.8,17.7-73.1,18.3
		c-1.6,0.5-3.8-0.8-6.2-3.5c-2.1-2.4-3.8-4.8-5.4-7.5c-1.6-2.4-3.5-4.6-5.6-6.4c-2.4-1.9-4.3-3.8-6.4-5.9
		c-4.8-5.4-10.7-9.9-17.2-13.4c-16.1-8.9-33-0.3-43.2,12.9c-2.7,3.2-9.1,15.3-15.8,15.6c-14.2,0.3-27.9,0.3-41.1,0
		c-3,0-5.9,1.1-8.1,3.2c-6.7,5.9-13.4,11.5-20.9,16.9c-3.2,2.4-7,3.8-11,4c-5.1,0.3-10.2,0.3-15.6-0.3c-5.1-0.3-10.2-0.5-15.3-0.8
		c-14.8-0.5-29.5-0.5-44.3-0.5c-1.1,0-1.9-0.5-2.4-1.3c-3.8-5.4-8.6-10.2-14.2-13.7c-3-2.7-4.8-6.4-4.8-10.2c0-0.3,0-0.3-0.3-0.3
		l-0.3,0.3c-1.6-3.2-2.7-6.7-3-10.2c-0.8-17.5,0.5-34.9,4.3-51.8c0.5,0.3,1.1-0.3,1.3-1.6c0-0.8,0.5-0.8,1.1-0.5
		c1.1,0.8,2.7,0.8,3.8,0.3c7.8-2.1,14.2-7.3,18.3-14.2c0.5-1.1,1.9-1.9,3-1.6c5.4,0,10.5-1.9,14-5.6c1.1-0.8,2.4-1.3,3.8-1.3
		l25.5,2.1c3.2,0.3,6.2-1.6,7.3-4.6c0.5-1.3,1.3-2.7,2.4-3.8c0.5-0.5,1.1-1.3,1.1-2.1v-1.1c0-0.8,0.3-1.3,0.8-1.9
		c1.3-1.3,2.1-3.2,2.4-5.1c0.3-0.8,0-1.6-0.5-2.4c-1.6-1.9-3.5-3-5.9-3.5l1.6-1.3c0.5-0.5,0.8-1.3,0.3-1.9c0,0,0,0,0-0.3L445,612
		c3,2.7,7,3.2,10.5,1.6c0.8-0.3,1.3-1.1,1.3-1.9c0.3-4-1.6-6.4-6.2-7c-1.3-0.3-2.1-1.1-2.1-2.4C447.7,600.7,448.5,598.5,450.1,596.9
		z" class="st21"></path>
	<path d="M716.8,599.6c-4,7.3-9.7,13.4-16.1,18.5c-0.5,0.5-1.3,0.5-2.1,0.5c-2.7-0.3-3.5-2.1-3-4.8
		c0-0.5,0.5-1.1,0.8-1.6c3.8-4,13.4-13.2,19.6-13.7C717.1,598.3,717.4,598.5,716.8,599.6z" class="st24"></path>
	<path d="M531.3,627.6l-4.8-4.6c-3-2.7-3.8-6.7-2.4-10.5l2.1-5.9c1.9-4.8,7.5-7.5,12.4-5.6c0.3,0,0.5,0.3,0.8,0.3
		l11.3,5.6c4.8,2.4,6.7,8.1,4.3,12.9c-0.8,1.6-2.1,3-3.8,4l-8.6,4.8C538.8,631,534.2,630.5,531.3,627.6z" class="st3"></path>
	<path d="M444.5,612.5l2.4,3.8c0.5,0.5,0.5,1.6,0,1.9c0,0,0,0-0.3,0l-1.6,1.3c-3.2,2.4-7,3.5-10.7,3.5
		c-1.6,0-2.7-1.3-2.7-2.7c0-0.5,0.3-1.1,0.5-1.3l5.6-9.7c1.1-1.6,3-2.1,4.6-1.1c0,0,0,0,0.3,0C444,609.6,444.8,610.9,444.5,612.5z" class="st23"></path>
	<ellipse ry="15.8" rx="11" cy="624.9" cx="607.9" class="st3" transform="matrix(0.1409 -0.99 0.99 0.1409 -96.4426 1138.6187)"></ellipse>
	<path d="M471.9,622.2l7,2.7c3.2,3.2,5.4,7.5,6.4,12.1c0.3,0.8,0.3,1.9-0.3,2.7c-1.6,4.3-5.1,7.8-9.7,9.4
		c-5.9,2.7-12.6,2.4-18.3-0.5c-5.6-3.2-6.7-8.1-3.2-14.5C457.9,627,464.4,622.7,471.9,622.2z" class="st25"></path>
	<path d="M531.3,653.9c-2.1,4.8-4,9.7-5.9,14c-1.9,4.8-4.8,5.1-9.4,3.8c-1.6,0-3.2-0.3-4.8-1.3
		c-0.8-0.5-1.3-1.6-1.3-2.4c0-5.4-1.9-10.5-5.1-14.5c-0.8-1.1-1.1-2.1-0.8-3.5c1.6-8.3,9.4-12.4,17.5-7.5
		C526.2,644.7,529.6,648.8,531.3,653.9z" class="st9"></path>
	<path d="M534.7,651.2l8.1,17.2c1.1,2.7,2.4,5.4,3.5,8.1c1.1,2.7,1.3,5.6,0.5,8.3c-2.7,9.4-10.7,16.7-21.2,12.4
		c-11.3-4.6-21.5-11.3-29.8-20.1c-0.8-0.8-0.8-2.1,0-3c0.3-0.3,0.8-0.5,1.1-0.5l18.8-2.4c4.6,1.3,7.5,0.8,9.4-3.8
		c1.9-4.3,3.8-8.9,5.9-14c-0.5-1.3-0.5-3,0-4.3c0.3-0.8,0.8-0.8,1.3-0.3C533.1,650.1,533.9,650.7,534.7,651.2z" class="st3"></path>
	<path d="M637.6,650.4c5.9,3,14,5.4,13.4,13.2c0,1.1-0.5,1.9-1.3,2.1c-8.9,4.8-17.2-1.3-20.4-10.2
		c-0.8-2.4,0.5-5.1,3-5.9c0.3,0,0.8-0.3,1.1-0.3C634.7,649.3,636.3,649.6,637.6,650.4z" class="st3"></path>
	<path d="M246.3,683.2c18.8,20.9,44.3,34.9,72.2,39.8c10.5,1.9,20.9,3.5,31.4,5.1c4.3,0.5,9.4,2.7,14.2,3.2
		c0.5,0,1.1-0.3,1.3-0.8v-0.3v-1.1l0.3-0.3c0.3-0.3,0.3,0,0.3,0.3c0,4,1.9,7.8,4.8,10.2l-9.1,11.8c-0.3,0.3-0.3,0.5-0.3,0.8v1.1
		c0,1.1-0.8,1.9-1.9,1.9l-11.3,0.5l-12.9,0.3c-1.1,0-1.9-0.8-1.9-1.6c0-0.3,0-0.5,0.3-1.1c1.1-2.1,0-4-3-5.4
		c-4.6-1.3-9.4-1.6-14-1.1c-2.7-0.3-5.1,1.6-5.6,4.3c0,0.8-0.5,1.6-1.3,2.1l-2.4,1.9c-3.5,1.1-7.3,1.6-10.7,1.1
		c-5.4-0.3-10.5-1.9-15.3-4.3c-10.5-10.7-20.1-21.8-29.3-33c-8.1-9.9-13.7-21.5-16.7-34.1c-1.9-8.1-3.5-13.7-5.6-20.4
		c-0.3-0.8-0.3-1.6-0.5-2.1c1.1-3,2.1-3,3.2,0C235,669.5,239.8,677,246.3,683.2z" class="st7"></path>
	<path d="M366.9,663.3c-0.3,1.1-0.3,2.1,0,3.2c-3.8,16.9-5.1,34.4-4.3,51.8c0.5,3.5,1.3,7,3,10.2v1.1
		c0,0.5-0.3,1.1-0.8,1.1h-0.3c-4.8-0.5-9.9-2.4-14.2-3.2c-10.5-1.6-20.9-3.2-31.4-5.1c-27.9-4.6-53.4-18.5-72.2-39.8
		c19.3-0.5,38.4-1.6,56.9-4c9.9-1.3,19.9-3.2,29.8-5.6c9.9-2.4,19.6-4.6,29.5-6.4C363.7,666.8,365.3,665.7,366.9,663.3z" class="st6"></path>
	<path d="M619.6,716.7c1.9,2.1,4,4,6.4,5.9c2.1,1.9,4,4,5.6,6.4c1.6,2.7,3.5,5.1,5.4,7.5c2.4,3,4.6,4,6.2,3.5
		c3.2,7.3,6.2,11.8,8.9,13.7c0.5,0.8,0.5,1.6,0.5,2.4c-0.5,0.3-1.3,0.5-1.9,0.5c-18.5,0.5-37.1,1.1-55.1,1.3
		c-8.3,0-17.5-0.3-26.9-0.8c-9.1-0.5-18-0.8-26.9-0.5h-3c-21.2,0-42.2,0-63.7,0c-0.8,0-1.1-0.3-0.8-1.1l0.3-1.3
		c0-0.5,0.5-1.1,1.3-1.1c15.3,0.3,30.6,0.8,45.7,1.3c3.2,0,6.4-0.3,9.7-1.1c0.8,0,1.6-0.5,2.1-1.3c4.8-6.4,7.8-12.6,15-17.5
		c12.4-8.3,16.7-25.5,32.8-28.7c4.6-0.5,9.4,0.3,13.7,2.1C602.7,711.1,610.8,714,619.6,716.7z" class="st26"></path>
	<path d="M745,755.1l-1.3-0.5c-0.3,0-0.5-0.5-0.5-0.8l0,0c0.5-1.1,0.5-1.3,0-0.8c10.2-13.7,25.2-22.8,41.9-26.1
		c14.8-3,20.9,5.6,30.6,14c1.3,1.1,3.2,1.1,4.3-0.3c13.7-13.7,24.4,1.6,29.5,13.4c0.3,0.5,0,1.1-0.5,1.1h-0.3H745z" class="st27"></path>
	<path d="M244.9,752.7c1.1,1.6,0.5,3-1.6,4.3l-67.4-0.3c-0.8,0-1.6-0.8-1.6-1.6c0-0.3,0-0.5,0.3-0.8
		c6.4-10.5,17.5-22.3,29.5-25.8c8.1-2.1,15.3,2.4,21.5,7C232.6,740.6,239,746.5,244.9,752.7z" class="st26"></path>
	<path d="M348.1,754.9c-13.7,1.3-27.4,1.3-40.8-0.5l2.4-1.9c0.8-0.5,1.1-1.3,1.3-2.1c0.3-2.7,2.7-4.8,5.6-4.3
		c4.8-0.5,9.4,0,14,1.1c3,1.3,4,3,3,5.4c-0.5,0.8-0.3,1.9,0.8,2.4c0.3,0.3,0.5,0.3,1.1,0.3L348.1,754.9z" class="st28"></path>
	<path d="M280.9,750.8c4.8,2.4,9.9,4,15.3,4.3c-5.9,1.6-12.1,2.4-18.3,2.7c-11.5-0.5-23.1-1.1-34.9-1.1
		c2.4-1.1,3-2.7,1.6-4C256.8,754.3,269.1,753.8,280.9,750.8z" class="st29"></path>
	<path d="M743.4,752.7c0.5-0.5,0.3-0.3,0,0.8c-0.3,0.3,0,0.8,0.3,1.1l0,0l1.3,0.5c-7.3,1.3-14.5,1.6-21.8,1.3
		l-16.1-0.5h-54.5c0-0.8-0.3-1.6-0.5-2.4L743.4,752.7z" class="st29"></path>
</g>
</svg>
