<svg xmlns="http://www.w3.org/2000/svg" viewBox="0 0 512 512">
  <circle cx="256" cy="256" r="256" fill="#FFD700"/>
  <path d="M383.8 320c-41.8 0-75.8-34-75.8-75.8s34-75.8 75.8-75.8S459.6 202.4 459.6 244.2S425.6 320 383.8 320z" fill="#000"/>
  <circle cx="168.4" cy="192.4" r="32.1" fill="#FFF"/>
  <circle cx="343.6" cy="192.4" r="32.1" fill="#FFF"/>
  <g fill="#000">
    <path d="M327.5 219.5c-1.3-5.5-6.2-9.4-11.8-9.4c-5.6 0-10.5 3.9-11.8 9.4L256 281.3l-47.9-62.3c-1.3-5.5-6.2-9.4-11.8-9.4c-5.6 0-10.5 3.9-11.8 9.4l-24 96c-1.3 5.1 1.2 10.4 5.7 12.8c4.5 2.4 10.2 1.7 13.8-1.6l45.8-37.1l45.8 37.1c2.9 2.3 7 2.4 10 0.2s6-7.7 4.7-13.2l-24-96c-1.3-5.5-6.2-9.4-11.8-9.4s-10.5 3.9-11.8 9.4L256 281.3l-47.9-62.3c-1.3-5.5-6.2-9.4-11.8-9.4c-5.6 0-10.5 3.9-11.8 9.4l-24 96c-1.3 5.1 1.2 10.4 5.7 12.8c4.5 2.4 10.2 1.7 13.8-1.6l45.8-37.1l45.8 37.1c2.9 2.3 7 2.4 10 0.2c3-2.1 6-7.7 4.7-13.2L256 281.3l45.8 62.3c2.3 3.2 6.8 5.2 11.8 5.2c5.6 0 10.5-3.9 11.8-9.4l24-96C329.3 229.9 328.8 224.6 327.5 219.5z"/>
    <path d="M409.6 192.4c-47.9 0-87.1-39.2-87.1-87.1c0-10.6-8.6-19.2-19.2-19.2s-19.2 8.6-19.2 19.2c0 47.9-39.2 87.1-87.1 87.1S99.5 152.4 99.5 104.5c0-10.6-8.6-19.2-19.2-19.2S61.1 93.9 61.1 104.5c0 57.4 46.7 104.1 104.1 104.1c10.6 0 19.2 8.6 19.2 19.2S175.7 248 165.1 248c-57.4 0-104.1-46.7-104.1-104.1C61.1 86.9 45 70.8 25.3 61.2C8.3 52.4-1.9 35.7 0.2 18.1C1.5 8.6 9.4 1 19 1C50.9 1 79 29.1 79 61.1c0 10.6 8.6 19.2 19.2 19.2s19.2-8.6 19.2-19.2C117.4 29.1 145.5 1 177.4 1c10.6 0 19.2 8.6 19.2 19.2C196.6 29.1 224.7 57.2 256 57.2s59.4-28.1 59.4-59.4c0-10.6-8.6-19.2-19.2-19.2S276.9 29.1 276.9 39.7c0 31.9-28.1 60-59.4 60c-10.6 0-19.2 8.6-19.2 19.2c0 10.6 8.6 19.2 19.2 19.2c31.3 0 59.4 28.1 59.4 59.4c0 10.6 8.6 19.2 19.2 19.2c10.6 0 19.2-8.6 19.2-19.2C345.5 334.3 409.6 270.3 409.6 192.4z"/>
  </g>
</svg>